<?xml version="1.0" encoding="UTF-8"?>
<svg width="60px" height="48px" viewBox="0 0 60 48" version="1.1" xmlns="http://www.w3.org/2000/svg" xmlns:xlink="http://www.w3.org/1999/xlink">
    <!-- Generator: Sketch 45.2 (43514) - http://www.bohemiancoding.com/sketch -->
    <title>ic_spark</title>
    <desc>Created with Sketch.</desc>
    <defs></defs>
    <g id="Page-1" stroke="none" stroke-width="1" fill="none" fill-rule="evenodd">
        <g id="ic_front_商城首页80%缩小版" transform="translate(-390.000000, -114.000000)">
            <path d="M423.715803,138.645517 C423.71262,138.718345 423.662484,138.774621 423.600411,138.774621 L415.377306,138.774621 C415.316029,138.774621 415.265893,138.718345 415.26271,138.645517 L415.101956,134.838621 C415.099569,134.788138 415.121056,134.754207 415.133789,134.737655 C415.146522,134.722759 415.174375,134.696276 415.216553,134.696276 L423.76196,134.696276 C423.804138,134.696276 423.831992,134.722759 423.844725,134.737655 C423.857457,134.754207 423.878149,134.788138 423.876557,134.838621 L423.715803,138.645517 Z M436.628616,136.137931 L431.70494,136.137931 C431.529066,136.137931 431.386616,136.286069 431.386616,136.468966 L431.386616,136.549241 L424.026169,135.820138 L424.067551,134.850207 C424.075509,134.655724 423.950567,134.495172 423.790609,134.476966 C423.800159,134.445517 422.635093,133.638621 422.635093,133.638621 C422.635093,133.638621 422.140895,133.24469 419.513131,133.24469 C416.884571,133.24469 416.391168,133.638621 416.391168,133.638621 C416.391168,133.638621 415.288972,134.401655 415.242019,134.469517 L415.216553,134.469517 C415.041475,134.469517 414.902208,134.64331 414.910962,134.850207 L414.951548,135.822621 L407.613384,136.549241 L407.613384,136.468966 C407.613384,136.286069 407.470934,136.137931 407.295856,136.137931 L402.371384,136.137931 C402.196306,136.137931 402.053856,136.286069 402.053856,136.468966 L402.053856,139.116414 C402.053856,139.300138 402.196306,139.448276 402.371384,139.448276 L407.295856,139.448276 C407.470934,139.448276 407.613384,139.300138 407.613384,139.116414 L407.613384,139.032828 L415.055799,138.289655 L415.071715,138.657103 C415.078878,138.835034 415.195066,138.972414 415.341495,138.993103 L415.723484,142.938207 C415.740992,143.111172 415.883442,143.244414 416.054541,143.244414 L416.169933,143.244414 L416.169933,140.061517 C416.169933,139.756966 416.412655,139.509517 416.710288,139.509517 L422.306424,139.509517 C422.604853,139.509517 422.846779,139.756966 422.846779,140.061517 L422.846779,143.244414 L422.961375,143.244414 C423.13327,143.244414 423.27572,143.111172 423.293228,142.938207 L423.676013,138.984 C423.802547,138.945103 423.899635,138.818483 423.906798,138.657103 L423.921918,138.287172 L431.386616,139.032828 L431.386616,139.116414 C431.386616,139.300138 431.529066,139.448276 431.70494,139.448276 L436.628616,139.448276 C436.803694,139.448276 436.946144,139.300138 436.946144,139.116414 L436.946144,136.468966 C436.946144,136.286069 436.803694,136.137931 436.628616,136.137931 L436.628616,136.137931 Z M432.093295,140.092966 C432.14741,140.205517 432.257232,140.275862 432.377399,140.275862 L435.955361,140.275862 C436.075528,140.275862 436.186146,140.205517 436.239465,140.092966 L436.449559,139.655172 L431.883201,139.655172 L432.093295,140.092966 Z M431.783725,134.193103 L431.783725,135.931034 L436.549035,135.931034 L436.549035,134.193103 C436.549035,134.009379 436.406585,133.862069 436.231507,133.862069 L432.102049,133.862069 C431.926175,133.862069 431.783725,134.009379 431.783725,134.193103 L431.783725,134.193103 Z M432.737105,133.655172 L435.59645,133.655172 C435.683989,133.655172 435.754817,133.58069 435.754817,133.489655 L435.754817,132.165517 C435.754817,132.074483 435.683989,132 435.59645,132 L432.737105,132 C432.649566,132 432.577943,132.074483 432.577943,132.165517 L432.577943,133.489655 C432.577943,133.58069 432.649566,133.655172 432.737105,133.655172 L432.737105,133.655172 Z M440.602095,132.413793 L435.982418,132.413793 L435.982418,133.241379 L440.602095,133.241379 C440.821739,133.241379 441,133.056 441,132.827586 C441,132.598345 440.821739,132.413793 440.602095,132.413793 L440.602095,132.413793 Z M427.869136,133.241379 L432.351137,133.241379 L432.351137,132.413793 L427.869136,132.413793 C427.648696,132.413793 427.471231,132.598345 427.471231,132.827586 C427.471231,133.056 427.648696,133.241379 427.869136,133.241379 L427.869136,133.241379 Z M402.759739,140.092966 C402.813854,140.205517 402.924472,140.275862 403.043844,140.275862 L406.622601,140.275862 C406.742768,140.275862 406.853386,140.205517 406.906705,140.092966 L407.116799,139.655172 L402.550441,139.655172 L402.759739,140.092966 Z M402.768493,133.862069 C402.593415,133.862069 402.450965,134.009379 402.450965,134.193103 L402.450965,135.931034 L407.216275,135.931034 L407.216275,134.193103 C407.216275,134.009379 407.073825,133.862069 406.898747,133.862069 L402.768493,133.862069 Z M403.404345,133.655172 L406.262895,133.655172 C406.35123,133.655172 406.422057,133.58069 406.422057,133.489655 L406.422057,132.165517 C406.422057,132.074483 406.35123,132 406.262895,132 L403.404345,132 C403.316011,132 403.245183,132.074483 403.245183,132.165517 L403.245183,133.489655 C403.245183,133.58069 403.316011,133.655172 403.404345,133.655172 L403.404345,133.655172 Z M403.017582,132.413793 L398.397905,132.413793 C398.178261,132.413793 398,132.598345 398,132.827586 C398,133.056 398.178261,133.241379 398.397905,133.241379 L403.017582,133.241379 L403.017582,132.413793 Z M411.528769,132.827586 C411.528769,132.598345 411.350508,132.413793 411.13166,132.413793 L406.649659,132.413793 L406.649659,133.241379 L411.13166,133.241379 C411.350508,133.241379 411.528769,133.056 411.528769,132.827586 L411.528769,132.827586 Z M415.450521,138.54869 L423.527992,138.54869 L423.681583,134.923034 L415.29693,134.923034 L415.450521,138.54869 Z M418.717321,142.758621 C418.278034,142.758621 417.921511,142.387862 417.921511,141.931034 C417.921511,141.473379 418.278034,141.103448 418.717321,141.103448 C419.156608,141.103448 419.513131,141.473379 419.513131,141.931034 C419.513131,142.387862 419.156608,142.758621 418.717321,142.758621 L418.717321,142.758621 Z M420.308941,140.689655 L418.717321,140.689655 C418.057594,140.689655 417.523606,141.245793 417.523606,141.931034 C417.523606,142.616276 418.057594,143.172414 418.717321,143.172414 L420.308941,143.172414 C420.967871,143.172414 421.502656,142.616276 421.502656,141.931034 C421.502656,141.245793 420.967871,140.689655 420.308941,140.689655 L420.308941,140.689655 Z M418.717321,141.517241 C418.496882,141.517241 418.319416,141.701793 418.319416,141.931034 C418.319416,142.159448 418.496882,142.344828 418.717321,142.344828 C418.936964,142.344828 419.115226,142.159448 419.115226,141.931034 C419.115226,141.701793 418.936964,141.517241 418.717321,141.517241 L418.717321,141.517241 Z M420.308941,143.37931 L418.717321,143.37931 C417.949364,143.37931 417.324653,142.729655 417.324653,141.931034 C417.324653,141.132414 417.949364,140.482759 418.717321,140.482759 L420.308941,140.482759 C421.076897,140.482759 421.701608,141.132414 421.701608,141.931034 C421.701608,142.729655 421.076897,143.37931 420.308941,143.37931 L420.308941,143.37931 Z M422.378047,140.275862 L421.900561,140.275862 L421.900561,140.193103 C421.900561,140.009379 421.758111,139.862069 421.582237,139.862069 L417.444025,139.862069 C417.268151,139.862069 417.125701,140.009379 417.125701,140.193103 L417.125701,140.275862 L416.648215,140.275862 C416.472341,140.275862 416.329891,140.423172 416.329891,140.606897 L416.329891,143.254345 C416.329891,143.438069 416.472341,143.586207 416.648215,143.586207 L417.125701,143.586207 L417.125701,143.668138 C417.125701,143.851862 417.268151,144 417.444025,144 L421.582237,144 C421.758111,144 421.900561,143.851862 421.900561,143.668138 L421.900561,143.586207 L422.378047,143.586207 C422.553921,143.586207 422.696371,143.438069 422.696371,143.254345 L422.696371,140.606897 C422.696371,140.423172 422.553921,140.275862 422.378047,140.275862 L422.378047,140.275862 Z" id="Fill-1" fill="#707473"></path>
            <g id="Slices" transform="translate(390.000000, 114.000000)"></g>
        </g>
    </g>
</svg>