<?xml version="1.0" encoding="UTF-8"?>
<svg width="60px" height="48px" viewBox="0 0 60 48" version="1.1" xmlns="http://www.w3.org/2000/svg" xmlns:xlink="http://www.w3.org/1999/xlink">
    <!-- Generator: Sketch 45.2 (43514) - http://www.bohemiancoding.com/sketch -->
    <title>ic_tee</title>
    <desc>Created with Sketch.</desc>
    <defs></defs>
    <g id="Page-1" stroke="none" stroke-width="1" fill="none" fill-rule="evenodd">
        <g id="ic_front_商城首页80%缩小版" transform="translate(-1470.000000, -114.000000)">
            <g id="Page-1" transform="translate(1486.000000, 125.000000)" fill="#707473">
                <path d="M26.3970889,12.1343625 L24.3501722,11.446175 C24.2462556,11.4112375 24.1383111,11.49005 24.1383111,11.60055 L24.1383111,25.837175 C24.1383111,25.9273625 24.0658111,25.999675 23.9772,25.999675 L4.96608889,25.999675 C4.87667222,25.999675 4.80497778,25.9273625 4.80497778,25.837175 L4.80497778,11.60055 C4.80497778,11.49005 4.69703333,11.4112375 4.59311667,11.446175 L2.5462,12.1343625 C2.4592,12.1636125 2.36656111,12.1148625 2.34078333,12.0271125 L0.00708888889,4.1808 C-0.0138555556,4.110925 0.0143388889,4.0353625 0.0755611111,3.9963625 L6.37661667,0.0248625 C6.40239444,0.0086125 6.4322,-0.000325 6.46200556,-0.000325 L9.92911667,-0.000325 C9.99678333,-0.000325 10.0547833,0.04355 10.0765333,0.106925 C10.6774778,1.848925 12.1025056,3.249675 14.4716444,3.249675 C16.8391722,3.249675 18.2666167,1.848925 18.86595,0.106925 C18.8885056,0.04355 18.9465056,-0.000325 19.0141722,-0.000325 L22.4812833,-0.000325 C22.5110889,-0.000325 22.5408944,0.0086125 22.5666722,0.0248625 L28.8669222,3.9963625 C28.92895,4.0353625 28.9571444,4.110925 28.9362,4.1808 L26.6025056,12.0271125 C26.5767278,12.1148625 26.4832833,12.1636125 26.3970889,12.1343625 Z M15.8977194,8.4153875 L15.2734139,11.03895 C15.1324417,11.6337 14.7256361,11.8343875 14.3172194,11.8685125 C14.2769417,11.8733875 13.1346639,11.8685125 13.1346639,11.8685125 L12.8776917,12.945075 L15.0253028,12.945075 C15.5875806,12.945075 16.4181083,12.655825 16.7153583,11.4037625 L17.428275,8.4153875 L15.8977194,8.4153875 Z M14.977775,10.767575 L15.7962194,7.312825 L14.2205528,7.312825 L13.5011917,10.3491375 C13.4069417,10.74645 13.216025,10.7602625 12.9993306,10.7602625 L11.8127472,10.7602625 C11.5839694,10.7602625 11.4744139,10.738325 11.5493306,10.423075 L11.7579694,9.5431375 C11.8111361,9.3188875 11.9158583,9.27745 12.1059694,9.27745 L13.3996917,9.27745 L13.6043028,8.4153875 L11.0692194,8.4153875 C10.6962472,8.4153875 10.1814972,8.57545 10.0163583,9.2750125 L9.68849722,10.6530125 C9.50724722,11.4232625 9.84235833,11.5947 10.2419139,11.5947 L13.8741639,11.5947 C14.3284972,11.5947 14.8198861,11.4346375 14.977775,10.767575 Z M17.7746639,8.4153875 L17.0327472,11.5947 L18.5633028,11.5947 L19.3044139,8.4153875 L17.7746639,8.4153875 Z" id="Combined-Shape"></path>
            </g>
            <g id="Slices" transform="translate(390.000000, 114.000000)"></g>
        </g>
    </g>
</svg>