<?xml version="1.0" encoding="UTF-8"?>
<svg width="90px" height="90px" viewBox="0 0 90 90" version="1.1" xmlns="http://www.w3.org/2000/svg" xmlns:xlink="http://www.w3.org/1999/xlink">
    <!-- Generator: Sketch 47 (45396) - http://www.bohemiancoding.com/sketch -->
    <title>Group 4</title>
    <desc>Created with Sketch.</desc>
    <defs></defs>
    <g id="首页" stroke="none" stroke-width="1" fill="none" fill-rule="evenodd">
        <g id="DJI-PRIME-有资格" transform="translate(-510.000000, -1862.000000)">
            <g id="Group-4" transform="translate(360.000000, 1721.000000)">
                <rect id="Rectangle-7-Copy" fill="#FFFFFF" x="0" y="0" width="1200" height="462"></rect>
                <g id="Group-22" transform="translate(60.000000, 126.000000)" font-family="PingFangSC-Regular, PingFang SC" font-weight="normal">
                    <g id="Group-21">
                        <g id="Group-13">
                            <text id="推广商品" font-size="20" line-spacing="24" fill="#D1B56F">
                                <tspan x="93.56" y="160.96">购买主机</tspan>
                            </text>
                            <text id="分享链接/内容或者在网站加入JS推广插件" font-size="14" line-spacing="18" fill="#707473">
                                <tspan x="20" y="189">通过DJI Store购买或已经购买了主机</tspan>
                            </text>
                        </g>
                    </g>
                </g>
                <path d="M208.109068,199.86694 C211.196436,199.869877 213.698507,202.362763 213.701454,205.438797 C213.698501,208.511718 211.196878,211.000978 208.112634,210.999997 C205.028389,210.999016 202.528361,208.508166 202.527377,205.435244 C202.526392,202.362322 205.024824,199.869882 208.109068,199.86694 Z M184.151625,199.86694 C187.236905,199.872811 189.735724,202.364839 189.738666,205.438797 C189.735713,208.512411 187.233005,211.001959 184.148064,210.999999 C181.063124,210.998038 178.563605,208.505312 178.564588,205.431696 C178.565571,202.358081 181.066685,199.866942 184.151625,199.86694 Z M177.195894,163 L179.051112,170.718566 L218,170.718566 L213.033148,190.7634 L184.098161,190.7634 C183.020402,190.7634 182.146707,191.633889 182.146707,192.707691 C182.146707,193.781492 183.020402,194.651981 184.098161,194.651981 L213.348589,194.651981 L213.348589,197.848075 L184.103507,197.848075 C182.076923,197.853913 180.235408,196.674713 179.398971,194.835561 C178.562535,192.996409 178.886783,190.83945 180.227331,189.325158 L174.667023,166.196094 L168,166.196094 L168,163 L177.195894,163 Z" id="Combined-Shape" fill="#D1B56F" fill-rule="nonzero"></path>
            </g>
        </g>
    </g>
</svg>