<?xml version="1.0" encoding="UTF-8"?>
<svg width="90px" height="90px" viewBox="0 0 90 90" version="1.1" xmlns="http://www.w3.org/2000/svg" xmlns:xlink="http://www.w3.org/1999/xlink">
    <!-- Generator: Sketch 47 (45396) - http://www.bohemiancoding.com/sketch -->
    <title>Group 4</title>
    <desc>Created with Sketch.</desc>
    <defs></defs>
    <g id="首页" stroke="none" stroke-width="1" fill="none" fill-rule="evenodd">
        <g id="DJI-PRIME-有资格" transform="translate(-1050.000000, -1860.000000)">
            <g id="Group-4" transform="translate(360.000000, 1721.000000)">
                <rect id="Rectangle-7-Copy" fill="#FFFFFF" x="0" y="0" width="1200" height="462"></rect>
                <g id="Group-22" transform="translate(60.000000, 126.000000)" font-family="PingFangSC-Regular, PingFang SC" font-weight="normal">
                    <g id="Group-16" transform="translate(540.000000, 0.000000)">
                        <g id="Group-13">
                            <text id="推广商品" font-size="20" line-spacing="24" fill="#D1B56F">
                                <tspan x="73.56" y="160.96">系统识别资格</tspan>
                            </text>
                            <text id="分享链接/内容或者在网站加入JS推广插件" font-size="14" line-spacing="18" fill="#707473">
                                <tspan x="25.73" y="189">满足DJI Prime会员计划的用户系统</tspan>
                                <tspan x="21.992" y="207">将发出邀约申请，用户亦可在活动页</tspan>
                                <tspan x="56.992" y="225">面查看是否满足加入条件</tspan>
                            </text>
                        </g>
                    </g>
                </g>
                <path d="M736,168.095541 C742.025532,168.095541 747.029787,172.987261 747.029787,179.101911 C747.029787,185.216561 742.025532,190.10828 736,190.10828 C729.974468,190.10828 724.970213,185.216561 724.970213,179.101911 C724.970213,172.987261 729.974468,168.095541 736,168.095541 Z M748.66383,203.968153 C748.153191,203.968153 747.642553,203.764331 747.234043,203.356688 C744.27234,200.401274 740.187234,198.66879 736,198.66879 C731.812766,198.66879 727.72766,200.299363 724.765957,203.356688 C723.948936,204.171975 722.723404,204.171975 721.906383,203.356688 C721.089362,202.541401 721.089362,201.318471 721.906383,200.503185 C725.685106,196.732484 730.689362,194.694268 736,194.694268 C741.310638,194.694268 746.314894,196.732484 750.093617,200.503185 C750.910638,201.318471 750.910638,202.541401 750.093617,203.356688 C749.685106,203.764331 749.174468,203.968153 748.66383,203.968153 Z M757.957447,211 L747.948936,211 C746.825532,211 745.906383,210.082803 745.906383,208.961783 C745.906383,207.840764 746.825532,206.923567 747.948936,206.923567 L755.914894,206.923567 L755.914894,198.974522 C755.914894,197.853503 756.834043,196.936306 757.957447,196.936306 C759.080851,196.936306 760,197.853503 760,198.974522 L760,208.961783 C760,210.082803 759.080851,211 757.957447,211 Z M724.051064,211 L714.042553,211 C712.919149,211 712,210.082803 712,208.961783 L712,198.974522 C712,197.853503 712.919149,196.936306 714.042553,196.936306 C715.165957,196.936306 716.085106,197.853503 716.085106,198.974522 L716.085106,206.923567 L724.051064,206.923567 C725.174468,206.923567 726.093617,207.840764 726.093617,208.961783 C726.093617,210.082803 725.07234,211 724.051064,211 Z M714.042553,177.063694 C712.919149,177.063694 712,176.146497 712,175.025478 L712,165.140127 C712,164.019108 712.919149,163.101911 714.042553,163.101911 L724.051064,163.101911 C725.174468,163.101911 726.093617,164.019108 726.093617,165.140127 C726.093617,166.261146 725.174468,167.178344 724.051064,167.178344 L715.982979,167.178344 L715.982979,175.127389 C715.982979,176.146497 715.06383,177.063694 714.042553,177.063694 Z M757.957447,177.063694 C756.834043,177.063694 755.914894,176.146497 755.914894,175.025478 L755.914894,167.076433 L747.948936,167.076433 C746.825532,167.076433 745.906383,166.159236 745.906383,165.038217 C745.906383,163.917197 746.825532,163 747.948936,163 L757.957447,163 C759.080851,163 760,163.917197 760,165.038217 L760,175.025478 C760,176.146497 759.080851,177.063694 757.957447,177.063694 Z" id="Combined-Shape" fill="#D1B56F" fill-rule="nonzero"></path>
            </g>
        </g>
    </g>
</svg>