<?xml version="1.0" encoding="UTF-8"?>
<svg width="90px" height="90px" viewBox="0 0 90 90" version="1.1" xmlns="http://www.w3.org/2000/svg" xmlns:xlink="http://www.w3.org/1999/xlink">
    <!-- Generator: Sketch 47 (45396) - http://www.bohemiancoding.com/sketch -->
    <title>Group 4 Copy 2</title>
    <desc>Created with Sketch.</desc>
    <defs></defs>
    <g id="首页" stroke="none" stroke-width="1" fill="none" fill-rule="evenodd">
        <g id="DJI-PRIME-有资格" transform="translate(-1320.000000, -1862.000000)">
            <g id="Group-4" transform="translate(360.000000, 1721.000000)">
                <rect id="Rectangle-7-Copy" fill="#FFFFFF" x="0" y="0" width="1200" height="462"></rect>
                <g id="Group-22" transform="translate(60.000000, 126.000000)" font-family="PingFangSC-Regular, PingFang SC" font-weight="normal">
                    <g id="Group-12" transform="translate(810.000000, 0.000000)">
                        <g id="Group-13">
                            <text id="推广商品" font-size="20" line-spacing="24" fill="#D1B56F">
                                <tspan x="66.83" y="160.96">购买Prime会员</tspan>
                            </text>
                            <text id="分享链接/内容或者在网站加入JS推广插件" font-size="14" line-spacing="18" fill="#707473">
                                <tspan x="24.281" y="189">通过Prime会员的页面进行付款，即</tspan>
                                <tspan x="80.281" y="207">可享有Prime服务</tspan>
                            </text>
                        </g>
                    </g>
                </g>
                <path d="M991.016667,196.752782 C991.982489,196.752782 992.677578,197.580868 992.677578,198.544208 C992.677578,199.516519 991.982489,200.345295 991.016667,200.345295 C989.913067,200.345295 989.223489,199.516519 989.223489,198.544208 C989.223489,197.580868 989.913067,196.752782 991.016667,196.752782 L991.016667,196.752782 Z M1025.40187,211 L986.598133,211 L985.770089,206.435866 L1026.22922,206.435866 L1025.40187,211 Z M985.356067,203.938497 L980.661289,177.93867 L995.988378,192.873199 L1006.06889,172.130337 L1016.1494,192.873199 L1031.47649,177.93867 L1026.78171,203.938497 L985.356067,203.938497 L985.356067,203.938497 Z M1021.11973,196.752782 C1022.08556,196.752782 1022.9136,197.580868 1022.9136,198.544208 C1022.9136,199.516519 1022.08556,200.345295 1021.11973,200.345295 C1020.1546,200.345295 1019.32587,199.516519 1019.32587,198.544208 C1019.32656,197.580868 1020.1546,196.752782 1021.11973,196.752782 L1021.11973,196.752782 Z M1006.06889,163 C1008.2816,163 1010.07409,164.798327 1010.07409,167.011386 C1010.07409,169.225826 1008.28091,171.022082 1006.06889,171.022082 C1003.86169,171.022082 1002.06369,169.225826 1002.06369,167.011386 C1002.063,164.798327 1003.86169,163 1006.06889,163 L1006.06889,163 Z M978.454089,170.469335 C980.385044,170.469335 981.903356,171.991633 981.903356,173.926594 C981.903356,175.863625 980.385044,177.386613 978.454089,177.386613 C976.654711,177.385923 975,175.863625 975,173.926594 C975,171.991633 976.654711,170.469335 978.454089,170.469335 L978.454089,170.469335 Z M1033.54591,170.469335 C1035.48169,170.469335 1037,171.991633 1037,173.926594 C1037,175.863625 1035.48169,177.386613 1033.54591,177.386613 C1031.75204,177.386613 1030.23442,175.863625 1030.23442,173.926594 C1030.23511,171.991633 1031.75204,170.469335 1033.54591,170.469335 L1033.54591,170.469335 Z M1006.06889,194.674286 C1007.58651,194.674286 1008.8334,195.923316 1008.8334,197.438713 C1008.8334,199.105926 1007.58651,200.345295 1006.06889,200.345295 C1004.55196,200.345295 1003.17211,199.105926 1003.17211,197.438713 C1003.17211,195.923316 1004.55127,194.674286 1006.06889,194.674286 L1006.06889,194.674286 Z" id="Shape" fill="#D1B56F" fill-rule="nonzero"></path>
            </g>
        </g>
    </g>
</svg>