<?xml version="1.0" encoding="UTF-8"?>
<svg width="60px" height="48px" viewBox="0 0 60 48" version="1.1" xmlns="http://www.w3.org/2000/svg" xmlns:xlink="http://www.w3.org/1999/xlink">
    <!-- Generator: Sketch 45.2 (43514) - http://www.bohemiancoding.com/sketch -->
    <title>ic_mavic</title>
    <desc>Created with Sketch.</desc>
    <defs></defs>
    <g id="Page-1" stroke="none" stroke-width="1" fill="none" fill-rule="evenodd">
        <g id="ic_front_商城首页80%缩小版" transform="translate(-510.000000, -114.000000)">
            <g id="Mavic" transform="translate(522.000000, 130.000000)" fill="#707473">
                <path d="M31.7339617,4.8448 C31.075834,4.5448 30.8470255,3.8488 30.7888128,3.6184 C30.7847702,3.6032 30.770217,3.5944 30.7637489,3.58 C31.0976638,3.6472 31.4218766,3.7136 31.7339617,3.7808 L31.7339617,4.8448 Z" id="Fill-1"></path>
                <polygon id="Fill-3" points="22.2339617 6.41432 22.638217 6.41432 22.638217 3.36952 22.2339617 3.35752"></polygon>
                <path d="M21.4254511,3.33304 L17.7426851,3.22024 C17.5898766,3.21544 17.4378766,3.23144 17.2899191,3.26664 L14.2305149,4.01304 L9.47000426,4.01304 C9.38025957,4.01304 9.30668511,4.08424 9.30668511,4.17304 L9.30668511,6.25384 C9.30668511,6.34264 9.38025957,6.41464 9.47000426,6.41464 L21.4254511,6.41464 L21.4254511,3.33304 Z" id="Fill-5"></path>
                <path d="M37.196583,5.16392 L37.196583,4.76312 C37.196583,4.71192 37.1529234,4.67352 37.1019872,4.68312 C36.4939872,4.79992 33.130583,5.37432 32.0180723,5.14712 C30.9742851,4.93352 30.6549234,3.91192 30.5926681,3.66632 C30.5837745,3.63112 30.5538596,3.61192 30.5174766,3.61112 L23.0427957,3.38232 L23.0427957,6.41432 L37.1141149,6.41432 C37.1602,6.41432 37.196583,6.37912 37.196583,6.33432 L37.196583,5.96392 C36.9693915,5.96392 36.7858596,5.78472 36.7858596,5.56392 C36.7858596,5.34312 36.9693915,5.16392 37.196583,5.16392" id="Fill-7"></path>
                <path d="M30.141034,13.87288 L11.1070766,15.19208 C11.0181404,15.19848 10.9405234,15.13208 10.9340553,15.04328 L10.9009064,14.56488 C10.8944383,14.47688 10.9615447,14.40008 11.0504809,14.39368 L30.0844383,13.07448 C30.174183,13.06888 30.2509915,13.13528 30.2574596,13.22328 L30.291417,13.70248 C30.2970766,13.78968 30.2299702,13.86648 30.141034,13.87288" id="Fill-10"></path>
                <path d="M15.1354809,1.31976 L34.1694383,0.00056 C34.2583745,-0.00584 34.3359915,0.06056 34.3424596,0.14936 L34.376417,0.62776 C34.3828851,0.71576 34.3157787,0.79256 34.226034,0.79816 L15.1920766,2.11816 C15.1023319,2.12376 15.0255234,2.05736 15.0190553,1.96936 L14.9850979,1.49016 C14.9794383,1.40216 15.0465447,1.32536 15.1354809,1.31976" id="Fill-12"></path>
                <path d="M34.7658766,1.41512 L34.7658766,0.17512 C34.7658766,0.08632 34.6939191,0.01512 34.6041745,0.01512 L33.3105574,0.01512 C33.2208128,0.01512 33.1488553,0.08632 33.1488553,0.17512 L33.1488553,1.41512 L34.7658766,1.41512 Z" id="Fill-14"></path>
                <path d="M1.59486809,4.23888 L4.69954894,3.61488 L4.69954894,6.01488 L1.59486809,5.39088 C1.5196766,5.37568 1.46550638,5.31008 1.46550638,5.23408 L1.46550638,4.39568 C1.46550638,4.31968 1.5196766,4.25408 1.59486809,4.23888" id="Fill-16"></path>
                <path d="M34.7327277,6.61432 L37.1582596,6.61432 L35.5654936,15.28312 C35.5517489,15.35912 35.4846426,15.41432 35.406217,15.41432 L33.3097489,15.41432 C33.2086851,15.41432 33.1326851,15.32392 33.1504723,15.22552 L34.7327277,6.61432 Z" id="Fill-18"></path>
                <path d="M4.80602979,9.01512 L7.60024255,9.01512 C7.64066809,9.01512 7.67381702,9.05032 7.67381702,9.09512 L7.67381702,12.13512 C7.67381702,12.17912 7.64066809,12.21512 7.60024255,12.21512 L4.80602979,12.21512 C4.76722128,12.21512 4.73002979,12.19832 4.70254043,12.16792 L4.48343404,11.93032 C4.45594468,11.89992 4.44058298,11.85992 4.44058298,11.81672 L4.44058298,9.41352 C4.44058298,9.37032 4.45594468,9.33032 4.48343404,9.29992 L4.70254043,9.06232 C4.73002979,9.03192 4.76722128,9.01512 4.80602979,9.01512" id="Fill-20"></path>
                <polygon id="Fill-22" points="13.3403447 12.7776 12.9360894 13.5776 9.70204681 13.5776 9.29779149 12.7776 9.29779149 9.5776 13.3403447 9.5776"></polygon>
                <path d="M10.5105574,13.7776 L10.5105574,15.0296 C10.5105574,15.1184 10.5825149,15.1904 10.6722596,15.1904 L11.9658766,15.1904 C12.0556213,15.1904 12.1275787,15.1184 12.1275787,15.0296 L12.1275787,13.7776 L10.5105574,13.7776 Z" id="Fill-24"></path>
                <path d="M32.0589021,4.95144 C32.2165617,4.98344 32.4380936,5.00024 32.7162213,5.00024 C33.6395404,5.00024 34.9994553,4.82104 35.9785617,4.66984 L35.9785617,2.41544 L35.5743064,1.61544 L32.3402638,1.61544 L31.9360085,2.41544 L31.9360085,4.91224 C31.9780511,4.92424 32.014434,4.94264 32.0589021,4.95144" id="Fill-26"></path>
                <path d="M30.2342553,7.21856 L16.5081702,7.92016 L15.7004681,7.96176 L9.2412766,8.29216 L9.29787234,9.37776 L13.5425532,9.37776 L13.5425532,9.67456 L14.9768511,9.60096 L15.8670213,11.15776 L30.401617,10.41456 C31.2934043,10.36896 31.9790213,9.61616 31.9329362,8.73376 C31.8868511,7.85136 31.1260426,7.17296 30.2342553,7.21856" id="Fill-28"></path>
                <path d="M9.78225106,12.48536 C8.83063404,13.43016 7.51518723,14.01496 6.06391064,14.01496 C3.16620851,14.01496 0.808591489,11.68216 0.808591489,8.81496 C0.808591489,7.86216 1.07378298,6.97176 1.52735745,6.20296 L1.32927234,5.75096 C0.74633617,6.63176 0.40433617,7.68376 0.40433617,8.81496 C0.40433617,11.90776 2.93820851,14.41496 6.06391064,14.41496 C7.6647617,14.41496 9.10795319,13.75416 10.1363787,12.69736 L9.78225106,12.48536 Z" id="Fill-30"></path>
                <path d="M3.7996766,6.01512 L1.54635745,6.01512 C1.51320851,6.01512 1.48248511,5.99432 1.47116596,5.96312 L0.622229787,3.72312 C0.602017021,3.67112 0.641634043,3.61512 0.697421277,3.61512 L2.95074043,3.61512 C2.98469787,3.61512 3.01461277,3.63592 3.02593191,3.66712 L3.87486809,5.90712 C3.89508085,5.95912 3.85627234,6.01512 3.7996766,6.01512 L3.7996766,6.01512 Z M9.47057021,6.61432 C9.26844255,6.61432 9.10431489,6.45272 9.10431489,6.25432 L9.10431489,4.17352 C9.10431489,3.97512 9.26844255,3.81352 9.47057021,3.81352 L14.2302723,3.81352 L17.241166,3.07272 C17.3883149,3.03752 17.5378894,3.01912 17.6874638,3.01912 L29.7609532,3.38712 C27.8003149,3.02392 25.5922723,2.69912 23.4561872,2.57272 C16.7180596,2.17352 9.29754894,2.71512 9.29754894,2.71512 C5.37788936,2.71512 -0.000323404255,3.21512 -0.000323404255,3.21512 L1.21244255,6.41512 L4.24435745,7.01512 L7.88265532,7.01512 L7.88265532,7.73512 L9.29754894,8.01512 L9.29754894,8.08952 L30.3188255,7.01592 C31.2874213,7.01592 32.0846128,7.76632 32.1339319,8.72392 C32.1598043,9.20312 31.9940596,9.66472 31.6690383,10.02232 C31.3432085,10.37912 30.8969106,10.58952 30.4118043,10.61432 L15.7526979,11.36392 L14.8617191,9.80712 L13.5422298,9.87512 L13.5422298,12.82472 L13.2058894,13.49032 L29.9186128,12.95672 L30.1158894,13.41112 C30.238783,13.77512 30.5355064,14.01432 30.8669957,14.01432 L32.8842298,14.01432 C33.0378468,14.01432 33.1704426,13.88472 33.201166,13.70552 L33.3798468,12.84632 L33.3822723,12.84632 L34.5271234,6.61432 L9.47057021,6.61432 Z" id="Fill-32"></path>
                <polygon id="Fill-35" points="3.63829787 8.8152 7.68085106 8.8152 7.68085106 7.2152 3.63829787 7.2152"></polygon>
            </g>
            <g id="Slices" transform="translate(390.000000, 114.000000)"></g>
        </g>
    </g>
</svg>