<?xml version="1.0" encoding="UTF-8"?>
<svg width="90px" height="90px" viewBox="0 0 90 90" version="1.1" xmlns="http://www.w3.org/2000/svg" xmlns:xlink="http://www.w3.org/1999/xlink">
    <!-- Generator: Sketch 47 (45396) - http://www.bohemiancoding.com/sketch -->
    <title>Group</title>
    <desc>Created with Sketch.</desc>
    <defs>
        <circle id="path-1" cx="45" cy="45" r="45"></circle>
    </defs>
    <g id="首页" stroke="none" stroke-width="1" fill="none" fill-rule="evenodd">
        <g id="DJI-PRIME-有资格" transform="translate(-990.000000, -1016.000000)">
            <g id="item" transform="translate(990.000000, 1016.000000)">
                <g id="Oval-3">
                    <use fill="#D1B56F" fill-rule="evenodd" xlink:href="#path-1"></use>
                    <circle stroke="#FFFFFF" stroke-width="6" cx="45" cy="45" r="42"></circle>
                    <circle stroke="#D1B56F" stroke-width="2" cx="45" cy="45" r="44"></circle>
                </g>
                <text id="描述" font-family="PingFangSC-Regular, PingFang SC" font-size="14" font-weight="normal" line-spacing="21" fill="#707473">
                    <tspan x="110" y="83">Prime优惠专场将定期举办，从主机到配件，各种优惠信息将第</tspan>
                    <tspan x="110" y="104">一时间通过邮件传达给您。</tspan>
                </text>
                <text id="副标题" font-family="PingFangSC-Regular, PingFang SC" font-size="16" font-weight="normal" line-spacing="24" fill="#333333">
                    <tspan x="110" y="51">定时举办的Prime折扣专场，仅仅针对Prime会员</tspan>
                </text>
                <text id="标题" font-family="PingFangSC-Regular, PingFang SC" font-size="20" font-weight="normal" line-spacing="24" fill="#333333">
                    <tspan x="110" y="21">专项会员优惠价</tspan>
                </text>
            </g>
            <path d="M1058.95767,1054.58344 C1059.04703,1054.9119 1058.99389,1055.25969 1058.80793,1055.54467 L1055.31085,1061.00053 L1058.80552,1066.45397 C1058.98906,1066.73895 1059.04461,1067.08674 1058.95525,1067.4152 C1058.86831,1067.74366 1058.64612,1068.02141 1058.34423,1068.17598 L1052.58902,1071.15146 L1052.89091,1077.62651 C1052.9054,1077.96705 1052.77981,1078.29551 1052.5383,1078.53702 C1052.29679,1078.77613 1051.95867,1078.92828 1051.6278,1078.88964 L1045.1553,1078.58533 L1042.17988,1084.34549 C1042.0229,1084.64739 1041.74758,1084.86958 1041.41912,1084.95894 C1041.31769,1084.98551 1041.21142,1085 1041.10757,1085 C1040.87814,1085 1040.65353,1084.93479 1040.45549,1084.8092 L1034.99975,1081.31205 L1029.5416,1084.81162 C1029.2542,1084.99517 1028.90642,1085.04347 1028.57797,1084.96136 C1028.24951,1084.872 1027.97178,1084.6498 1027.81721,1084.34791 L1024.84421,1078.58774 L1018.36929,1078.89205 C1018.02393,1078.92345 1017.7003,1078.77854 1017.45879,1078.53944 C1017.21728,1078.29792 1017.09169,1077.96946 1017.10619,1077.62892 L1017.40807,1071.15387 L1011.65286,1068.17839 C1011.35097,1068.02382 1011.12878,1067.74849 1011.04184,1067.41762 C1010.95248,1067.09157 1011.00803,1066.74137 1011.19158,1066.45638 L1014.68866,1061.00053 L1011.19158,1055.54467 C1011.00803,1055.25969 1010.95248,1054.9119 1011.04184,1054.58344 C1011.12878,1054.25256 1011.35097,1053.97723 1011.65286,1053.82025 L1017.41049,1050.84477 L1017.1086,1044.36972 C1017.09169,1044.03159 1017.22211,1043.6983 1017.46121,1043.4592 C1017.7003,1043.2201 1018.03117,1043.07519 1018.3717,1043.109 L1024.84421,1043.4109 L1027.81962,1037.65556 C1027.97661,1037.35367 1028.25193,1037.13147 1028.58038,1037.04211 C1028.90642,1036.95517 1029.25662,1037.0083 1029.54401,1037.19185 L1034.99975,1040.68901 L1040.45791,1037.18944 C1040.74531,1037.00589 1041.0955,1036.95517 1041.42154,1037.0397 C1041.74999,1037.12906 1042.02532,1037.35125 1042.1823,1037.65315 L1045.15772,1043.4109 L1051.63022,1043.109 C1051.95626,1043.07277 1052.2992,1043.2201 1052.54071,1043.46162 C1052.78223,1043.70313 1052.90781,1044.03159 1052.89332,1044.37213 L1052.59143,1050.84718 L1058.34664,1053.82266 C1058.64853,1053.97723 1058.87072,1054.25256 1058.95767,1054.58344 Z M1028.96197,1057.37778 C1027.62814,1057.37778 1026.54686,1056.29648 1026.54686,1054.96262 C1026.54686,1053.62876 1027.62814,1052.54746 1028.96197,1052.54746 C1030.2958,1052.54746 1031.37708,1053.62876 1031.37708,1054.96262 C1031.37708,1056.29648 1030.2958,1057.37778 1028.96197,1057.37778 Z M1024.13175,1054.96262 C1024.13175,1057.62655 1026.2981,1059.79295 1028.96197,1059.79295 C1031.62584,1059.79295 1033.7922,1057.62655 1033.7922,1054.96262 C1033.7922,1052.2987 1031.62584,1050.1323 1028.96197,1050.1323 C1026.2981,1050.1323 1024.13175,1052.2987 1024.13175,1054.96262 Z M1028.60937,1069.10098 L1043.09763,1054.61001 C1043.56857,1054.13905 1043.56857,1053.37344 1043.09763,1052.90249 C1042.62668,1052.43153 1041.86109,1052.43153 1041.39014,1052.90249 L1026.89947,1067.39346 C1026.42852,1067.86442 1026.42852,1068.63003 1026.89947,1069.10098 C1027.13615,1069.33525 1027.44528,1069.4536 1027.75442,1069.4536 C1028.06355,1069.4536 1028.37268,1069.33525 1028.60937,1069.10098 Z M1041.03753,1071.86876 C1043.7014,1071.86876 1045.86776,1069.70236 1045.86776,1067.03843 C1045.86776,1064.37451 1043.7014,1062.20811 1041.03753,1062.20811 C1038.37367,1062.20811 1036.20731,1064.37451 1036.20731,1067.03843 C1036.20731,1069.70236 1038.37367,1071.86876 1041.03753,1071.86876 Z M1041.03753,1069.4536 C1039.7037,1069.4536 1038.62242,1068.37229 1038.62242,1067.03843 C1038.62242,1065.70458 1039.7037,1064.62327 1041.03753,1064.62327 C1042.37136,1064.62327 1043.45265,1065.70458 1043.45265,1067.03843 C1043.45265,1068.37229 1042.37136,1069.4536 1041.03753,1069.4536 Z" id="Combined-Shape" fill="#FFFFFF" fill-rule="nonzero"></path>
        </g>
    </g>
</svg>