<?xml version="1.0" encoding="UTF-8"?>
<svg width="90px" height="90px" viewBox="0 0 90 90" version="1.1" xmlns="http://www.w3.org/2000/svg" xmlns:xlink="http://www.w3.org/1999/xlink">
    <!-- Generator: Sketch 47 (45396) - http://www.bohemiancoding.com/sketch -->
    <title>Group</title>
    <desc>Created with Sketch.</desc>
    <defs>
        <circle id="path-1" cx="45" cy="45" r="45"></circle>
    </defs>
    <g id="首页" stroke="none" stroke-width="1" fill="none" fill-rule="evenodd">
        <g id="DJI-PRIME-有资格" transform="translate(-420.000000, -1348.000000)">
            <g id="Group" transform="translate(420.000000, 1348.000000)">
                <g id="item-copy-6">
                    <g id="Oval-3">
                        <use fill="#D1B56F" fill-rule="evenodd" xlink:href="#path-1"></use>
                        <circle stroke="#FFFFFF" stroke-width="6" cx="45" cy="45" r="42"></circle>
                        <circle stroke="#D1B56F" stroke-width="2" cx="45" cy="45" r="44"></circle>
                    </g>
                </g>
                <path d="M25,51.6257466 C25.1991021,51.7195089 25.4019608,51.8076454 25.5963671,51.9070335 C27.0699102,52.6936991 28.6016813,53.3134679 30.2639958,53.5731894 C32.6504032,53.9407376 34.8489784,53.4184816 36.9048012,52.2051976 C37.2045821,52.0343647 37.4943179,51.8465327 37.7725857,51.6426238 C37.9679311,51.4944794 38.1200751,51.4963546 38.3435954,51.5957427 C39.6462113,52.174256 40.9281657,52.8146525 42.2730438,53.2769006 C45.6220909,54.4226758 48.8020891,53.8394743 51.8299432,52.1405016 C52.1962159,51.9342245 52.5624885,51.5779278 52.9325179,51.5704268 C53.3025472,51.5629259 53.651915,51.9276612 54.0134918,52.124562 C55.3283168,52.8427812 56.6938565,53.4372341 58.1852437,53.6988309 C60.2833288,54.0607533 62.2433572,53.6256963 64.1019562,52.6561942 C64.7114715,52.33834 65.2946903,51.9698542 65.918293,51.6069941 C65.9248671,51.7345109 65.9342588,51.8498385 65.9351979,51.9661037 C65.9436504,53.1025027 65.9502245,54.2389017 65.9605553,55.3753007 C65.9605553,55.5300085 65.9868518,55.6837786 66,55.8375488 L66,61.9930433 C65.9746427,62.1111838 65.9408329,62.2283866 65.9267455,62.3484024 C65.7389133,63.9592386 65.047691,64.6727696 63.4398479,64.9062377 L62.7824354,65 L28.3499863,65 C28.2332564,64.9707296 28.115074,64.9475699 27.9959227,64.9306159 C26.2265439,64.7655943 25.3437328,63.9658019 25.1277259,62.2115094 C25.0272357,61.3985903 25.0723154,60.5678564 25.0497755,59.7446235 C25.0356881,59.2233052 25.0169049,58.7019868 25.0009392,58.1806685 C25.0003131,55.995382 25,53.810408 25,51.6257466 Z M25.0732545,48.4743959 C25.5221734,47.7496134 25.9184992,47.0473339 26.3739921,46.3919354 C27.1318948,45.3099186 28.2156863,44.7707854 29.522998,44.6713974 C29.8986623,44.642331 30.2809007,44.6320172 30.6603216,44.6320172 C40.7206111,44.6320172 50.7818398,44.6442063 60.8421294,44.6179529 C62.5852117,44.6179529 63.8803143,45.2958542 64.7969351,46.7332302 C65.1970176,47.3595623 65.5341763,48.0262122 65.8854224,48.6478562 C65.8710843,48.6863932 65.8508044,48.7224576 65.8253161,48.7547452 C64.5001603,49.4401476 63.1956661,50.1818073 61.8395181,50.7921998 C60.4204462,51.4288458 58.9431464,51.3322706 57.556006,50.659995 C56.1331776,49.9699045 54.7535505,49.1888646 53.3664101,48.4265772 C53.1081409,48.2840585 52.933457,48.2765575 52.676127,48.4265772 C51.8618747,48.9103906 51.0363524,49.3773268 50.1967427,49.8151967 C47.6497389,51.1456837 45.0257238,51.2713251 42.3763515,50.1771192 C40.9976636,49.6079821 39.6612379,48.9347688 38.3163597,48.2868714 C38.0806304,48.173419 37.9359996,48.1931091 37.721871,48.3309396 C36.5526159,49.066036 35.4030832,49.8423878 34.1821743,50.4818466 C32.5790269,51.3257073 30.8951118,51.3538359 29.1914743,50.7003128 C27.734836,50.1424271 26.4247068,49.3229447 25.0732545,48.4743959 Z M45.8484286,27.5982215 C47.1923676,25.4107472 46.6091488,23.2776551 45.9320139,21.1342491 C45.8437328,21.8627821 45.4098406,22.407541 44.9806441,22.9401108 C43.9109401,24.2715354 43.7888492,25.6976598 44.4847673,27.2250476 C44.5251512,27.3141218 44.5599001,27.4050712 44.6012232,27.5063345 C42.8449927,27.1744159 41.5836998,25.2288484 42.0016264,23.5195618 C42.2458081,22.5209934 42.7689207,21.6499417 43.2694933,20.7695137 C43.5512415,20.2753865 43.8329897,19.7840721 44.109103,19.2871319 C44.5044896,18.5717256 44.8256826,17.8281906 44.9017546,17.0040201 C44.9255608,16.99866 44.9502638,16.99866 44.97407,17.0040201 C46.288895,18.4929653 47.5398571,20.0316045 48.3916758,21.8468425 C48.7448003,22.5969408 48.9880429,23.3826688 48.9354499,24.23028 C48.8828569,25.0778911 48.4874702,25.7304766 47.8760766,26.2827365 C47.2853445,26.8096806 46.6016355,27.1922308 45.8484286,27.5982215 Z M45.5014087,29.2859428 L45.5014087,29.2859428 C46.7190198,29.2859428 47.7060885,30.2730115 47.7060885,31.4906225 L47.7060885,40.7480548 C47.7060885,41.9656658 46.7190198,42.9527345 45.5014087,42.9527345 C44.2837977,42.9527345 43.296729,41.9656658 43.296729,40.7480548 L43.296729,31.4906225 C43.296729,30.2730115 44.2837977,29.2859428 45.5014087,29.2859428 L45.5014087,29.2859428 Z" id="Combined-Shape" fill="#FFFFFF" fill-rule="nonzero"></path>
            </g>
        </g>
    </g>
</svg>