<?xml version="1.0" encoding="UTF-8"?>
<svg width="62px" height="40px" viewBox="0 0 62 40" version="1.1" xmlns="http://www.w3.org/2000/svg" xmlns:xlink="http://www.w3.org/1999/xlink">
    <!-- Generator: Sketch 44.1 (41455) - http://www.bohemiancoding.com/sketch -->
    <title>Shape</title>
    <desc>Created with Sketch.</desc>
    <defs></defs>
    <g id="Page-1" stroke="none" stroke-width="1" fill="none" fill-rule="evenodd">
        <g id="教育折扣" transform="translate(-838.000000, -3083.000000)" fill="#707473">
            <path d="M839.47619,3083.00001 C838.671157,3083.00001 838,3083.67356 838,3084.48149 L838,3121.51852 C838,3122.32644 838.671157,3123 839.47619,3123 L898.52381,3123 C899.328843,3123 900,3122.32644 900,3121.51852 L900,3084.48148 C900,3083.67356 899.328843,3083 898.52381,3083 L839.47619,3083 L839.47619,3083.00001 Z M839.47619,3084.48149 L898.52381,3084.48149 L898.52381,3087.81482 L869,3109.48149 L839.47619,3087.81482 L839.47619,3084.48149 Z M839.47619,3089.62038 L857.88244,3103.16208 L839.47619,3120.4537 L839.47619,3089.62038 Z M898.52381,3089.62038 L898.52381,3120.4537 L880.11756,3103.16208 L898.52381,3089.62038 Z M859.104911,3104.04164 L868.561756,3110.98608 C868.8223,3111.17899 869.1777,3111.17899 869.438244,3110.98608 L878.895089,3104.04164 L897.485863,3121.51852 L840.514137,3121.51852 L859.104911,3104.04164 L859.104911,3104.04164 Z" id="Shape"></path>
        </g>
    </g>
</svg>