<?xml version="1.0" encoding="UTF-8"?>
<svg width="55px" height="72px" viewBox="0 0 55 72" version="1.1" xmlns="http://www.w3.org/2000/svg" xmlns:xlink="http://www.w3.org/1999/xlink">
    <!-- Generator: Sketch 44.1 (41455) - http://www.bohemiancoding.com/sketch -->
    <title>Group 11</title>
    <desc>Created with Sketch.</desc>
    <defs></defs>
    <g id="Page-1" stroke="none" stroke-width="1" fill="none" fill-rule="evenodd">
        <g id="教育折扣" transform="translate(-557.000000, -1525.000000)">
            <g id="Group-11" transform="translate(557.000000, 1525.000000)">
                <polyline id="Fill-3" fill="#000000" opacity="0.200000003" points="55.011236 72 36.3284957 71.2098729 0.808988764 70.2470836 0.830890897 69.0187274 34.3373927 69.0187274 51.1429654 68.2722041 51.9639635 51.1111523 51.9639635 2.42696629 53.9550665 2.42696629 53.4072919 52.2249116 55.011236 72"></polyline>
                <polyline id="Fill-4" fill="#FFFFFF" points="50.9568502 68.0177264 34.2038316 68.7640449 0 68.7640449 0 0 51.7752809 0 51.7752809 50.8613805 50.9568502 68.0177264"></polyline>
                <path d="M45.4299581,28.3146067 L20.0981318,28.3146067 C19.7212137,28.3146067 19.4157303,27.9524554 19.4157303,27.505618 C19.4157303,27.0587806 19.7212137,26.6966292 20.0981318,26.6966292 L45.4299581,26.6966292 C45.8068762,26.6966292 46.1123596,27.0587806 46.1123596,27.505618 C46.1123596,27.9524554 45.8068762,28.3146067 45.4299581,28.3146067" id="Fill-5" fill="#9EB4B7"></path>
                <path d="M45.4299581,32.3595506 L20.0981318,32.3595506 C19.7212137,32.3595506 19.4157303,31.9971951 19.4157303,31.5504303 C19.4157303,31.1036655 19.7212137,30.741573 20.0981318,30.741573 L45.4299581,30.741573 C45.8068762,30.741573 46.1123596,31.1036655 46.1123596,31.5504303 C46.1123596,31.9971951 45.8068762,32.3595506 45.4299581,32.3595506" id="Fill-6" fill="#9EB4B7"></path>
                <path d="M34.9202415,35.5955056 L20.0909944,35.5955056 C19.7180186,35.5955056 19.4157303,35.2334131 19.4157303,34.7866483 C19.4157303,34.3398835 19.7180186,33.9775281 20.0909944,33.9775281 L34.9202415,33.9775281 C35.2932174,33.9775281 35.5955056,34.3398835 35.5955056,34.7866483 C35.5955056,35.2334131 35.2932174,35.5955056 34.9202415,35.5955056" id="Fill-7" fill="#9EB4B7"></path>
                <path d="M37.3410134,48.5393258 L20.0971888,48.5393258 C19.7207916,48.5393258 19.4157303,48.1771745 19.4157303,47.7303371 C19.4157303,47.2834997 19.7207916,46.9213483 20.0971888,46.9213483 L37.3410134,46.9213483 C37.7174107,46.9213483 38.0224719,47.2834997 38.0224719,47.7303371 C38.0224719,48.1771745 37.7174107,48.5393258 37.3410134,48.5393258" id="Fill-8" fill="#9EB4B7"></path>
                <path d="M45.4299581,44.494382 L20.0981318,44.494382 C19.7212137,44.494382 19.4157303,44.1322895 19.4157303,43.6855247 L19.4157303,43.6852618 C19.4157303,43.238497 19.7212137,42.8764045 20.0981318,42.8764045 L45.4299581,42.8764045 C45.8068762,42.8764045 46.1123596,43.238497 46.1123596,43.6852618 L46.1123596,43.6855247 C46.1123596,44.1322895 45.8068762,44.494382 45.4299581,44.494382" id="Fill-9" fill="#9EB4B7"></path>
                <path d="M45.4299581,16.988764 L20.0981318,16.988764 C19.7212137,16.988764 19.4157303,16.6266716 19.4157303,16.1799068 C19.4157303,15.733142 19.7212137,15.3707865 20.0981318,15.3707865 L45.4299581,15.3707865 C45.8068762,15.3707865 46.1123596,15.733142 46.1123596,16.1799068 C46.1123596,16.6266716 45.8068762,16.988764 45.4299581,16.988764" id="Fill-10" fill="#9EB4B7"></path>
                <path d="M45.4299581,13.752809 L20.0981318,13.752809 C19.7212137,13.752809 19.4157303,13.3904535 19.4157303,12.9436887 C19.4157303,12.4969239 19.7212137,12.1348315 20.0981318,12.1348315 L45.4299581,12.1348315 C45.8068762,12.1348315 46.1123596,12.4969239 46.1123596,12.9436887 C46.1123596,13.3904535 45.8068762,13.752809 45.4299581,13.752809" id="Fill-11" fill="#9EB4B7"></path>
                <path d="M8.25298931,19.2528265 L14.3986961,19.2528265 L14.3986961,13.1067241 L8.25298931,13.1067241 L8.25298931,19.2528265 Z M7.28089888,20.2247191 L15.3707865,20.2247191 L15.3707865,12.1348315 L7.28089888,12.1348315 L7.28089888,20.2247191 Z" id="Fill-12" fill="#9EB4B7"></path>
                <polyline id="Fill-13" fill="#BDD337" points="10.9415376 17.7977528 8.8988764 16.0184128 9.65807123 15.1307215 10.8297022 16.1509853 12.8813195 13.752809 13.752809 14.5116379 10.9415376 17.7977528"></polyline>
                <path d="M8.25298931,49.9941747 L14.3986961,49.9941747 L14.3986961,43.8482971 L8.25298931,43.8482971 L8.25298931,49.9941747 Z M7.28089888,50.9662921 L15.3707865,50.9662921 L15.3707865,42.8764045 L7.28089888,42.8764045 L7.28089888,50.9662921 Z" id="Fill-14" fill="#9EB4B7"></path>
                <polyline id="Fill-15" fill="#BDD337" points="10.9415376 48.5393258 8.8988764 46.7599859 9.65807123 45.8722946 10.8297022 46.8925583 12.8813195 44.494382 13.752809 45.2532109 10.9415376 48.5393258"></polyline>
                <path d="M8.25298931,33.8143994 L14.3986961,33.8143994 L14.3986961,27.6685218 L8.25298931,27.6685218 L8.25298931,33.8143994 Z M7.28089888,34.7865169 L15.3707865,34.7865169 L15.3707865,26.6966292 L7.28089888,26.6966292 L7.28089888,34.7865169 Z" id="Fill-16" fill="#9EB4B7"></path>
                <polyline id="Fill-17" fill="#BDD337" points="10.9415376 33.1685393 8.8988764 31.3891994 9.65807123 30.5015081 10.8297022 31.5217718 12.8813195 29.1235955 13.752809 29.8824244 10.9415376 33.1685393"></polyline>
                <path d="M40.8578022,63.1011236 C40.7870441,63.1011236 40.7156226,63.100018 40.6442012,63.0978067 C36.8482512,62.9821589 33.8651348,59.8110192 33.98078,56.014983 C34.0944352,52.2903698 37.1494153,49.3483146 40.850063,49.3483146 C40.9210422,49.3483146 40.9922425,49.3494202 41.063664,49.3516315 C44.8596139,49.4672793 47.8427304,52.638419 47.7270852,56.4344552 C47.61343,60.1590684 44.558671,63.1013447 40.8578022,63.1011236 M40.8511686,51.2218985 C38.1588236,51.2218985 35.9361354,53.3626002 35.8534368,56.072033 C35.7691905,58.8338721 37.9396947,61.1408591 40.7012499,61.2251073 C40.753434,61.2268763 40.8049547,61.2275397 40.8566966,61.2275397 C43.5488205,61.2275397 45.7717298,59.086838 45.8542072,56.3774052 C45.9386747,53.6155661 43.7681705,51.3085791 41.0066153,51.2243309 C40.9544312,51.2225619 40.9029104,51.2218985 40.8511686,51.2218985" id="Fill-18" fill="#D6EDED"></path>
                <path d="M40.8588127,63.9101124 C40.7709909,63.9101124 40.6833927,63.9088354 40.5949005,63.9060687 C35.9133095,63.7700756 32.2205509,60.032074 32.3635685,55.5734579 C32.5043515,51.1795396 36.2232554,47.7303371 40.8364662,47.7303371 C40.9285337,47.7303371 41.0206013,47.731614 41.1131158,47.7343807 C43.3810617,47.8001426 45.4861017,48.7031454 47.0409709,50.2769624 C48.5956167,51.8509922 49.413722,53.9070634 49.3442244,56.0669916 C49.2034414,60.4649535 45.4760458,63.9101124 40.8588127,63.9101124 M40.8494271,48.3688024 C36.5966654,48.3688024 33.1633496,51.5421879 33.0335165,55.5930375 C32.9018956,59.6996464 36.3032559,63.142677 40.6154593,63.2680291 C40.6950128,63.2703701 40.7743429,63.2714342 40.853226,63.2714342 C45.1019654,63.2714342 48.5444432,60.100177 48.6742764,56.0476248 C48.7379639,54.0581669 47.9846635,52.1642659 46.5524765,50.714524 C45.120513,49.2649949 43.1815075,48.4330746 41.0927805,48.3724204 C41.0112158,48.3700793 40.9303215,48.3688024 40.8494271,48.3688024" id="Fill-19" fill="#D6EDED"></path>
                <polyline id="Fill-20" fill="#BDD337" points="39.9382825 59.0561798 37.2134831 56.5095452 38.44422 55.4917817 40.0067698 56.9521801 43.3321325 54.2022472 44.494382 55.2884834 39.9382825 59.0561798"></polyline>
            </g>
        </g>
    </g>
</svg>