<?xml version="1.0" encoding="UTF-8"?>
<svg width="73px" height="64px" viewBox="0 0 73 64" version="1.1" xmlns="http://www.w3.org/2000/svg" xmlns:xlink="http://www.w3.org/1999/xlink">
    <!-- Generator: Sketch 44.1 (41455) - http://www.bohemiancoding.com/sketch -->
    <title>shutterstock_402070189 [转换]</title>
    <desc>Created with Sketch.</desc>
    <defs>
        <linearGradient x1="53.1470195%" y1="14.9877164%" x2="103.578774%" y2="63.3381698%" id="linearGradient-1">
            <stop stop-color="#002A6A" offset="0%"></stop>
            <stop stop-color="#001B45" offset="100%"></stop>
        </linearGradient>
        <linearGradient x1="51.2388301%" y1="3.65546448%" x2="78.6274095%" y2="85.1289617%" id="linearGradient-2">
            <stop stop-color="#000000" offset="0%"></stop>
            <stop stop-color="#231F20" offset="50.19%"></stop>
            <stop stop-color="#231F20" offset="61.55%"></stop>
            <stop stop-color="#000000" offset="100%"></stop>
        </linearGradient>
    </defs>
    <g id="Page-1" stroke="none" stroke-width="1" fill="none" fill-rule="evenodd">
        <g id="教育折扣" transform="translate(-802.000000, -1531.000000)" fill-rule="nonzero">
            <g id="shutterstock_402070189-[转换]" transform="translate(802.000000, 1531.000000)">
                <g id="Layer_2">
                    <rect id="Rectangle-path" fill="#000000" opacity="0.200000003" x="4.14644236" y="19.9595142" width="65.2644788" height="43.9919028"></rect>
                    <path d="M65.4109211,59.951417 L0.146442361,59.951417 L0.146442361,11.3441296 C0.146442361,8.72064777 2.29426365,6.58299595 4.93022614,6.58299595 L60.6271373,6.58299595 C63.2630998,6.58299595 65.4109211,8.72064777 65.4109211,11.3441296 L65.4109211,59.951417 Z" id="Shape" fill="#FFFFFF"></path>
                    <rect id="Rectangle-path" fill="#DDDDDD" x="0.146442361" y="15.9595142" width="65.2644788" height="43.9919028"></rect>
                    <ellipse id="Oval" fill="#ED4246" cx="5.58921677" cy="11.4898785" rx="1.87934363" ry="1.87044534"></ellipse>
                    <ellipse id="Oval" fill="#EDE253" cx="10.3485935" cy="11.4898785" rx="1.87934363" ry="1.87044534"></ellipse>
                    <ellipse id="Oval" fill="#9BD153" cx="15.1079702" cy="11.4898785" rx="1.87934363" ry="1.87044534"></ellipse>
                    <path d="M60.8712079,12.6072874 L21.2097352,12.6072874 C20.5995587,12.6072874 20.0870105,12.097166 20.0870105,11.4898785 L20.0870105,11.4898785 C20.0870105,10.8825911 20.5995587,10.3724696 21.2097352,10.3724696 L60.8712079,10.3724696 C61.4813844,10.3724696 61.9939327,10.8825911 61.9939327,11.4898785 L61.9939327,11.4898785 C61.9939327,12.097166 61.5057915,12.6072874 60.8712079,12.6072874 Z" id="Shape" fill="#EEEEEE"></path>
                    <g id="Group" transform="translate(62.970215, 0.000000)" fill="#F2F2E8">
                        <path d="M3.9783508,5.9757085 C3.80750138,5.9757085 3.66105902,5.90283401 3.53902372,5.78137652 C3.29495312,5.53846154 3.29495312,5.14979757 3.53902372,4.88259109 L5.85769443,2.57489879 C6.10176503,2.33198381 6.49227799,2.33198381 6.76075565,2.57489879 C7.00482625,2.81781377 7.00482625,3.20647773 6.76075565,3.47368421 L4.44208494,5.78137652 C4.29564258,5.92712551 4.12479316,5.9757085 3.9783508,5.9757085 Z" id="Shape"></path>
                        <path d="M8.54247104,9.23076923 L5.68684501,9.23076923 C5.34514617,9.23076923 5.05226145,8.93927126 5.05226145,8.59919028 C5.05226145,8.25910931 5.34514617,7.96761134 5.68684501,7.96761134 L8.54247104,7.96761134 C8.88416988,7.96761134 9.17705461,8.25910931 9.17705461,8.59919028 C9.17705461,8.96356275 8.88416988,9.23076923 8.54247104,9.23076923 Z" id="Shape"></path>
                        <path d="M0.707804744,4.29959514 C0.366105902,4.29959514 0.0732211804,4.00809717 0.0732211804,3.66801619 L0.0732211804,0.825910931 C0.0732211804,0.48582996 0.366105902,0.194331984 0.707804744,0.194331984 C1.04950359,0.194331984 1.34238831,0.48582996 1.34238831,0.825910931 L1.34238831,3.66801619 C1.34238831,4.00809717 1.04950359,4.29959514 0.707804744,4.29959514 Z" id="Shape"></path>
                    </g>
                </g>
                <g id="Layer_5" transform="translate(14.693878, 22.040816)" fill="#000000" opacity="0.1">
                    <polygon id="Shape" points="0.22094055 14.3415064 0.22094055 33.5765673 46.667554 33.5765673 50.8163265 33.5765673 50.8163265 0.19380414 0.22094055 0.19380414"></polygon>
                </g>
                <g id="Layer_4" transform="translate(11.020408, 13.469388)">
                    <rect id="Rectangle-path" fill="#FFFFFF" x="0.146593849" y="7.90309414" width="43.8559931" height="29.2269914"></rect>
                    <polygon id="Shape" fill="url(#linearGradient-1)" opacity="0.1" points="0.146593849 7.90309414 34.9382006 37.1300856 44.002587 37.1300856 44.002587 7.90309414"></polygon>
                    <polygon id="Shape" fill="url(#linearGradient-2)" opacity="0.08" points="0.146593849 7.90309414 23.6504743 25.5404872 44.002587 7.90309414"></polygon>
                    <rect id="Rectangle-path" fill="#44A8F2" opacity="0.06" x="40.3133084" y="7.87899934" width="3.68927853" height="29.2510862"></rect>
                    <rect id="Rectangle-path" fill="#44A8F2" opacity="0.06" x="0.146593849" y="7.87899934" width="3.68927853" height="29.2510862"></rect>
                    <polygon id="Shape" fill="#FFFFFF" points="0.146593849 7.90309414 22.0868066 23.3478604 44.002587 7.90309414"></polygon>
                    <g id="Group" transform="translate(36.159816, 0.000000)">
                        <ellipse id="Oval" fill="#FF3B66" cx="7.84277091" cy="7.90309414" rx="7.84277091" ry="7.73443055"></ellipse>
                        <polygon id="Shape" fill="#FFFFFF" points="7.45185398 4.33706386 8.84449554 4.33706386 8.84449554 11.4450296 7.32969244 11.4450296 7.32969244 6.0718894 5.76602472 7.08387097 5.05748778 5.90322581"></polygon>
                    </g>
                </g>
            </g>
        </g>
    </g>
</svg>