<?xml version="1.0" encoding="UTF-8"?>
<svg width="96px" height="53px" viewBox="0 0 96 53" version="1.1" xmlns="http://www.w3.org/2000/svg" xmlns:xlink="http://www.w3.org/1999/xlink">
    <!-- Generator: Sketch 44.1 (41455) - http://www.bohemiancoding.com/sketch -->
    <title>Group 14</title>
    <desc>Created with Sketch.</desc>
    <defs>
        <filter x="-1.6%" y="-3.0%" width="107.5%" height="112.0%" filterUnits="objectBoundingBox" id="filter-1">
            <feOffset dx="3" dy="3" in="SourceAlpha" result="shadowOffsetOuter1"></feOffset>
            <feColorMatrix values="0 0 0 0 0   0 0 0 0 0   0 0 0 0 0  0 0 0 0.2 0" type="matrix" in="shadowOffsetOuter1" result="shadowMatrixOuter1"></feColorMatrix>
            <feMerge>
                <feMergeNode in="shadowMatrixOuter1"></feMergeNode>
                <feMergeNode in="SourceGraphic"></feMergeNode>
            </feMerge>
        </filter>
    </defs>
    <g id="Page-1" stroke="none" stroke-width="1" fill="none" fill-rule="evenodd">
        <g id="教育折扣" transform="translate(-1038.000000, -1538.000000)">
            <g id="Group-14" filter="url(#filter-1)" transform="translate(1038.000000, 1538.000000)">
                <g id="shutterstock_531384298">
                    <path d="M2.44606481,49.8467593 C1.15972222,49.8467593 0.11712963,48.8041667 0.11712963,47.5178241 L0.11712963,2.41666667 C0.11712963,1.13032407 1.15972222,0.0877314815 2.44606481,0.0877314815 L90.5048611,0.0877314815 C91.7909722,0.0877314815 92.8335648,1.13032407 92.8335648,2.41666667 L92.8335648,47.5178241 C92.8335648,48.8041667 91.7909722,49.8467593 90.5048611,49.8467593 L2.44606481,49.8467593 Z" id="Fill-3" fill="#FFFFFF"></path>
                    <path d="M92.8335648,9.01712963 L0.11712963,9.01712963 L0.11712963,1.96597222 C0.11712963,0.928703704 0.958101852,0.0877314815 1.99537037,0.0877314815 L90.9553241,0.0877314815 C91.9928241,0.0877314815 92.8335648,0.928703704 92.8335648,1.96597222 L92.8335648,9.01712963" id="Fill-5" fill="#4A545B"></path>
                    <path d="M21.8613426,4.67592593 C21.8613426,6.13287037 20.6803241,7.31412037 19.2231481,7.31412037 C17.7662037,7.31412037 16.5849537,6.13287037 16.5849537,4.67592593 C16.5849537,3.21875 17.7662037,2.03773148 19.2231481,2.03773148 C20.6803241,2.03773148 21.8613426,3.21875 21.8613426,4.67592593" id="Fill-6" fill="#2AD33E"></path>
                    <path d="M7.04652778,4.67592593 C7.04652778,6.13287037 5.86527778,7.31412037 4.40833333,7.31412037 C2.95138889,7.31412037 1.77013889,6.13287037 1.77013889,4.67592593 C1.77013889,3.21875 2.95138889,2.03773148 4.40833333,2.03773148 C5.86527778,2.03773148 7.04652778,3.21875 7.04652778,4.67592593" id="Fill-7" fill="#D33016"></path>
                    <path d="M14.4539352,4.67592593 C14.4539352,6.13287037 13.2729167,7.31412037 11.8157407,7.31412037 C10.3587963,7.31412037 9.1775463,6.13287037 9.1775463,4.67592593 C9.1775463,3.21875 10.3587963,2.03773148 11.8157407,2.03773148 C13.2729167,2.03773148 14.4539352,3.21875 14.4539352,4.67592593" id="Fill-8" fill="#D1892A"></path>
                    <polygon id="Fill-9" fill="#FCFCFC" points="39.7988426 6.09189815 40.5016204 6.09189815 40.5016204 3.13287037 39.7988426 3.13287037"></polygon>
                    <path d="M41.6671296,5.07083333 C41.6671296,5.42106481 41.8289352,5.68356481 42.1293981,5.68356481 C42.4023148,5.68356481 42.5780093,5.43773148 42.5780093,5.07083333 C42.5780093,4.76666667 42.4483796,4.45810185 42.1293981,4.45810185 C41.7918981,4.45810185 41.6671296,4.77083333 41.6671296,5.07083333 Z M43.3039352,5.05 C43.3039352,5.79606481 42.7166667,6.13796296 42.1108796,6.13796296 C41.4497685,6.13796296 40.9412037,5.74606481 40.9412037,5.0875 C40.9412037,4.42893519 41.4219907,4.00810185 42.1479167,4.00810185 C42.8414352,4.00810185 43.3039352,4.43726852 43.3039352,5.05 L43.3039352,5.05 Z" id="Fill-10" fill="#FCFCFC"></path>
                    <path d="M45.1909722,4.88333333 C45.1909722,4.84166667 45.1863426,4.8 45.1770833,4.76666667 C45.1263889,4.6 44.9923611,4.48726852 44.7981481,4.48726852 C44.54375,4.48726852 44.3356481,4.69583333 44.3356481,5.06666667 C44.3356481,5.37106481 44.5020833,5.60856481 44.7981481,5.60856481 C44.9784722,5.60856481 45.1217593,5.50023148 45.1680556,5.35023148 C45.1863426,5.30416667 45.1909722,5.2375 45.1909722,5.18333333 L45.1909722,4.88333333 Z M45.89375,5.79606481 C45.89375,6.18796296 45.8060185,6.5087963 45.5516204,6.71296296 C45.3020833,6.90486111 44.9645833,6.96319444 44.631713,6.96319444 C44.3356481,6.96319444 44.0212963,6.90902778 43.8178241,6.80462963 L43.9564815,6.32546296 C44.1,6.40046296 44.349537,6.47962963 44.6131944,6.47962963 C44.9460648,6.47962963 45.2002315,6.31712963 45.2002315,5.94189815 L45.2002315,5.80856481 L45.1909722,5.80856481 C45.0569444,5.97939815 44.8395833,6.07523148 44.580787,6.07523148 C44.0212963,6.07523148 43.6236111,5.66689815 43.6236111,5.07916667 C43.6236111,4.42476852 44.0953704,4.00810185 44.6502315,4.00810185 C44.9599537,4.00810185 45.1541667,4.12893519 45.2696759,4.29560185 L45.2789352,4.29560185 L45.3020833,4.05393519 L45.9122685,4.05393519 C45.9030093,4.18310185 45.89375,4.35393519 45.89375,4.65833333 L45.89375,5.79606481 L45.89375,5.79606481 Z" id="Fill-11" fill="#FCFCFC"></path>
                    <path d="M46.4587963,6.09189815 L47.1615741,6.09189815 L47.1615741,4.05393519 L46.4587963,4.05393519 L46.4587963,6.09189815 Z M47.1847222,3.48703704 C47.1847222,3.66203704 47.0365741,3.80393519 46.8055556,3.80393519 C46.5835648,3.80393519 46.4356481,3.66203704 46.4402778,3.48703704 C46.4356481,3.3037037 46.5835648,3.1662037 46.8101852,3.1662037 C47.0365741,3.1662037 47.1800926,3.3037037 47.1847222,3.48703704 L47.1847222,3.48703704 Z" id="Fill-12" fill="#FCFCFC"></path>
                    <path d="M47.7259259,4.70416667 C47.7259259,4.44976852 47.7166667,4.23310185 47.7074074,4.05393519 L48.3178241,4.05393519 L48.35,4.33310185 L48.3638889,4.33310185 C48.4564815,4.20393519 48.6877315,4.00810185 49.062037,4.00810185 C49.524537,4.00810185 49.8712963,4.28310185 49.8712963,4.88333333 L49.8712963,6.09189815 L49.1685185,6.09189815 L49.1685185,4.9625 C49.1685185,4.7 49.0666667,4.52060185 48.8125,4.52060185 C48.618287,4.52060185 48.5027778,4.64166667 48.4564815,4.75833333 C48.437963,4.8 48.4287037,4.85833333 48.4287037,4.91666667 L48.4287037,6.09189815 L47.7259259,6.09189815 L47.7259259,4.70416667" id="Fill-13" fill="#FCFCFC"></path>
                    <polygon id="Fill-14" fill="#D6D4D2" points="35.8814815 26.1965278 86.3356481 26.1965278 86.3356481 19.3763889 35.8814815 19.3763889"></polygon>
                    <path d="M40.5358796,22.7865741 C40.5358796,23.6520833 39.8340278,24.3537037 38.9685185,24.3537037 C38.1030093,24.3537037 37.4011574,23.6520833 37.4011574,22.7865741 C37.4011574,21.9208333 38.1030093,21.219213 38.9685185,21.219213 C39.8340278,21.219213 40.5358796,21.9208333 40.5358796,22.7865741" id="Fill-15" fill="#050505"></path>
                    <path d="M44.5636574,22.7865741 C44.5636574,23.6520833 43.8618056,24.3537037 42.9962963,24.3537037 C42.130787,24.3537037 41.4289352,23.6520833 41.4289352,22.7865741 C41.4289352,21.9208333 42.130787,21.219213 42.9962963,21.219213 C43.8618056,21.219213 44.5636574,21.9208333 44.5636574,22.7865741" id="Fill-16" fill="#050505"></path>
                    <path d="M48.5914352,22.7865741 C48.5914352,23.6520833 47.8895833,24.3537037 47.0240741,24.3537037 C46.1585648,24.3537037 45.456713,23.6520833 45.456713,22.7865741 C45.456713,21.9208333 46.1585648,21.219213 47.0240741,21.219213 C47.8895833,21.219213 48.5914352,21.9208333 48.5914352,22.7865741" id="Fill-17" fill="#050505"></path>
                    <path d="M52.619213,22.7865741 C52.619213,23.6520833 51.9173611,24.3537037 51.0518519,24.3537037 C50.1863426,24.3537037 49.4844907,23.6520833 49.4844907,22.7865741 C49.4844907,21.9208333 50.1863426,21.219213 51.0518519,21.219213 C51.9173611,21.219213 52.619213,21.9208333 52.619213,22.7865741" id="Fill-18" fill="#050505"></path>
                    <path d="M56.6469907,22.7865741 C56.6469907,23.6520833 55.9451389,24.3537037 55.0796296,24.3537037 C54.2141204,24.3537037 53.5122685,23.6520833 53.5122685,22.7865741 C53.5122685,21.9208333 54.2141204,21.219213 55.0796296,21.219213 C55.9451389,21.219213 56.6469907,21.9208333 56.6469907,22.7865741" id="Fill-19" fill="#050505"></path>
                    <path d="M60.6747685,22.7865741 C60.6747685,23.6520833 59.9729167,24.3537037 59.1074074,24.3537037 C58.2418981,24.3537037 57.5400463,23.6520833 57.5400463,22.7865741 C57.5400463,21.9208333 58.2418981,21.219213 59.1074074,21.219213 C59.9729167,21.219213 60.6747685,21.9208333 60.6747685,22.7865741" id="Fill-20" fill="#050505"></path>
                    <polygon id="Fill-21" fill="#D6D4D2" points="35.7990741 38.4462963 86.2532407 38.4462963 86.2532407 31.6263889 35.7990741 31.6263889"></polygon>
                    <path d="M36.0305556,38.2148148 L86.0215278,38.2148148 L86.0215278,31.8578704 L36.0305556,31.8578704 L36.0305556,38.2148148 Z M35.5675926,38.6777778 L86.4844907,38.6777778 L86.4844907,31.3949074 L35.5675926,31.3949074 L35.5675926,38.6777778 Z" id="Fill-22" fill="#6FA0FF"></path>
                    <path d="M25.0349537,39.4775463 L9.06087963,39.4775463 C7.71944444,39.4775463 6.63171296,38.3900463 6.63171296,37.0483796 L6.63171296,21.074537 C6.63171296,19.7328704 7.71944444,18.6453704 9.06087963,18.6453704 L25.0349537,18.6453704 C26.3763889,18.6453704 27.4641204,19.7328704 27.4641204,21.074537 L27.4641204,37.0483796 C27.4641204,38.3900463 26.3763889,39.4775463 25.0349537,39.4775463" id="Fill-25" fill="#EEEEEE"></path>
                    <path d="M17.0152778,22.9023148 C14.4069444,22.9023148 12.2849537,25.0243056 12.2849537,27.6326389 C12.2849537,30.2409722 14.4069444,32.362963 17.0152778,32.362963 C19.6236111,32.362963 21.7456019,30.2409722 21.7456019,27.6326389 C21.7456019,25.0243056 19.6236111,22.9023148 17.0152778,22.9023148 Z M17.0152778,33.5203704 C13.76875,33.5203704 11.1275463,30.8791667 11.1275463,27.6326389 C11.1275463,24.3861111 13.76875,21.7449074 17.0152778,21.7449074 C20.2618056,21.7449074 22.9030093,24.3861111 22.9030093,27.6326389 C22.9030093,30.8791667 20.2618056,33.5203704 17.0152778,33.5203704 L17.0152778,33.5203704 Z" id="Fill-26" fill="#333333"></path>
                    <path d="M23.5034722,37.0125 C23.3344907,37.0125 23.1659722,36.9381944 23.0516204,36.8097222 C23.0391204,36.7953704 23.0275463,36.7810185 23.0166667,36.7662037 C22.7780093,36.4965278 20.4423611,33.9627315 17.237963,33.8284722 C15.0851852,33.7391204 12.9789352,34.7467593 10.9840278,36.8256944 C10.7627315,37.0564815 10.3965278,37.0638889 10.1657407,36.8425926 C9.93518519,36.6212963 9.9275463,36.2550926 10.1488426,36.024537 C14.0233796,31.9863426 17.6877315,32.3168981 20.0791667,33.3055556 C21.3013889,33.8108796 22.2798611,34.5259259 22.8851852,35.037037 C23.4490741,35.5131944 23.7458333,35.818287 23.9018519,36.024537 C23.9069444,36.0298611 23.9118056,36.0351852 23.9166667,36.0405093 L23.9150463,36.0421296 C24.0766204,36.2613426 24.074537,36.3648148 24.0731481,36.4467593 C24.0685185,36.6851852 23.9185185,36.8962963 23.6949074,36.9787037 C23.6328704,37.0016204 23.5680556,37.0125 23.5034722,37.0125" id="Fill-27" fill="#333333"></path>
                </g>
            </g>
        </g>
    </g>
</svg>