<?xml version="1.0" encoding="UTF-8"?>
<svg width="86px" height="43px" viewBox="0 0 86 43" version="1.1" xmlns="http://www.w3.org/2000/svg" xmlns:xlink="http://www.w3.org/1999/xlink">
    <!-- Generator: Sketch 44.1 (41455) - http://www.bohemiancoding.com/sketch -->
    <title>Group 15</title>
    <desc>Created with Sketch.</desc>
    <defs>
        <filter x="-1.8%" y="-3.8%" width="107.2%" height="115.0%" filterUnits="objectBoundingBox" id="filter-1">
            <feOffset dx="3" dy="3" in="SourceAlpha" result="shadowOffsetOuter1"></feOffset>
            <feColorMatrix values="0 0 0 0 0   0 0 0 0 0   0 0 0 0 0  0 0 0 0.2 0" type="matrix" in="shadowOffsetOuter1" result="shadowMatrixOuter1"></feColorMatrix>
            <feMerge>
                <feMergeNode in="shadowMatrixOuter1"></feMergeNode>
                <feMergeNode in="SourceGraphic"></feMergeNode>
            </feMerge>
        </filter>
    </defs>
    <g id="Page-1" stroke="none" stroke-width="1" fill="none" fill-rule="evenodd">
        <g id="教育折扣" transform="translate(-1294.000000, -1543.000000)">
            <g id="Group-15" filter="url(#filter-1)" transform="translate(1294.000000, 1543.000000)">
                <path d="M76.3068558,19.8269504 C76.3068558,16.3178881 79.1516154,13.4732861 82.6606777,13.4732861 L82.6606777,0.0293144208 L0.0983451537,0.0293144208 L0.0983451537,13.4732861 C3.60740741,13.4732861 6.45200946,16.3178881 6.45200946,19.8269504 C6.45200946,23.3360126 3.60740741,26.1807723 0.0983451537,26.1807723 L0.0983451537,39.8564224 L82.6606777,39.8564224 L82.6606777,26.1807723 C79.1516154,26.1807723 76.3068558,23.3360126 76.3068558,19.8269504" id="Fill-5" fill="#44A8F2"></path>
                <path d="M13.7041765,5.02553191 C13.7041765,5.78739165 13.0865248,6.40504334 12.3245075,6.40504334 C11.5626478,6.40504334 10.9449961,5.78739165 10.9449961,5.02553191 C10.9449961,4.26367218 11.5626478,3.64602049 12.3245075,3.64602049 C13.0865248,3.64602049 13.7041765,4.26367218 13.7041765,5.02553191" id="Fill-25" fill="#FFFFFF"></path>
                <path d="M13.7041765,10.021907 C13.7041765,10.7837667 13.0865248,11.4014184 12.3245075,11.4014184 C11.5626478,11.4014184 10.9449961,10.7837667 10.9449961,10.021907 C10.9449961,9.25988968 11.5626478,8.64223798 12.3245075,8.64223798 C13.0865248,8.64223798 13.7041765,9.25988968 13.7041765,10.021907" id="Fill-26" fill="#FFFFFF"></path>
                <path d="M13.7041765,15.0181245 C13.7041765,15.7799842 13.0865248,16.3976359 12.3245075,16.3976359 C11.5626478,16.3976359 10.9449961,15.7799842 10.9449961,15.0181245 C10.9449961,14.2562648 11.5626478,13.6386131 12.3245075,13.6386131 C13.0865248,13.6386131 13.7041765,14.2562648 13.7041765,15.0181245" id="Fill-27" fill="#FFFFFF"></path>
                <path d="M13.7041765,20.0144996 C13.7041765,20.7763593 13.0865248,21.394011 12.3245075,21.394011 C11.5626478,21.394011 10.9449961,20.7763593 10.9449961,20.0144996 C10.9449961,19.2524823 11.5626478,18.6348306 12.3245075,18.6348306 C13.0865248,18.6348306 13.7041765,19.2524823 13.7041765,20.0144996" id="Fill-28" fill="#FFFFFF"></path>
                <path d="M13.7041765,25.0107171 C13.7041765,25.7725768 13.0865248,26.3902285 12.3245075,26.3902285 C11.5626478,26.3902285 10.9449961,25.7725768 10.9449961,25.0107171 C10.9449961,24.2488574 11.5626478,23.6312057 12.3245075,23.6312057 C13.0865248,23.6312057 13.7041765,24.2488574 13.7041765,25.0107171" id="Fill-29" fill="#FFFFFF"></path>
                <path d="M13.7041765,30.043026 C13.7041765,30.8050433 13.0865248,31.422695 12.3245075,31.422695 C11.5626478,31.422695 10.9449961,30.8050433 10.9449961,30.043026 C10.9449961,29.2811663 11.5626478,28.6635146 12.3245075,28.6635146 C13.0865248,28.6635146 13.7041765,29.2811663 13.7041765,30.043026" id="Fill-30" fill="#FFFFFF"></path>
                <path d="M13.7041765,35.0394011 C13.7041765,35.8012608 13.0865248,36.4189125 12.3245075,36.4189125 C11.5626478,36.4189125 10.9449961,35.8012608 10.9449961,35.0394011 C10.9449961,34.2775414 11.5626478,33.6598897 12.3245075,33.6598897 C13.0865248,33.6598897 13.7041765,34.2775414 13.7041765,35.0394011" id="Fill-31" fill="#FFFFFF"></path>
                <path d="M72.3888101,5.08321513 C72.3888101,5.84507486 71.7711584,6.46272656 71.0092987,6.46272656 C70.2472813,6.46272656 69.6296296,5.84507486 69.6296296,5.08321513 C69.6296296,4.3213554 70.2472813,3.7037037 71.0092987,3.7037037 C71.7711584,3.7037037 72.3888101,4.3213554 72.3888101,5.08321513" id="Fill-34" fill="#FFFFFF"></path>
                <path d="M72.3888101,10.2685579 C72.3888101,11.0304177 71.7711584,11.6480693 71.0092987,11.6480693 C70.2472813,11.6480693 69.6296296,11.0304177 69.6296296,10.2685579 C69.6296296,9.50654058 70.2472813,8.88888889 71.0092987,8.88888889 C71.7711584,8.88888889 72.3888101,9.50654058 72.3888101,10.2685579" id="Fill-35" fill="#FFFFFF"></path>
                <path d="M72.3888101,14.7128448 C72.3888101,15.4747045 71.7711584,16.0923562 71.0092987,16.0923562 C70.2472813,16.0923562 69.6296296,15.4747045 69.6296296,14.7128448 C69.6296296,13.950985 70.2472813,13.3333333 71.0092987,13.3333333 C71.7711584,13.3333333 72.3888101,13.950985 72.3888101,14.7128448" id="Fill-36" fill="#FFFFFF"></path>
                <path d="M72.3888101,19.8981875 C72.3888101,20.6600473 71.7711584,21.277699 71.0092987,21.277699 C70.2472813,21.277699 69.6296296,20.6600473 69.6296296,19.8981875 C69.6296296,19.1361702 70.2472813,18.5185185 71.0092987,18.5185185 C71.7711584,18.5185185 72.3888101,19.1361702 72.3888101,19.8981875" id="Fill-37" fill="#FFFFFF"></path>
                <path d="M72.3888101,25.0832151 C72.3888101,25.8450749 71.7711584,26.4627266 71.0092987,26.4627266 C70.2472813,26.4627266 69.6296296,25.8450749 69.6296296,25.0832151 C69.6296296,24.3213554 70.2472813,23.7037037 71.0092987,23.7037037 C71.7711584,23.7037037 72.3888101,24.3213554 72.3888101,25.0832151" id="Fill-38" fill="#FFFFFF"></path>
                <path d="M72.3888101,30.2684003 C72.3888101,31.0304177 71.7711584,31.6480693 71.0092987,31.6480693 C70.2472813,31.6480693 69.6296296,31.0304177 69.6296296,30.2684003 C69.6296296,29.5065406 70.2472813,28.8888889 71.0092987,28.8888889 C71.7711584,28.8888889 72.3888101,29.5065406 72.3888101,30.2684003" id="Fill-39" fill="#FFFFFF"></path>
                <path d="M71.0092987,36.0923562 C70.2472813,36.0923562 69.6296296,35.4747045 69.6296296,34.7128448 C69.6296296,33.950985 70.2472813,33.3333333 71.0092987,33.3333333 C71.7711584,33.3333333 72.3888101,33.950985 72.3888101,34.7128448 C72.3888101,35.4747045 71.7711584,36.0923562 71.0092987,36.0923562 Z" id="Fill-40" fill="#FFFFFF"></path>
                <path d="M33.6971779,14.973158 C33.6971779,16.7174864 33.886999,18.0257131 34.266647,18.8978773 C34.6462949,19.7700415 35.261931,20.206117 36.1135737,20.206117 C37.7963375,20.206117 38.6377069,18.4618148 38.6377069,14.973158 C38.6377069,11.5050227 37.7963375,9.77098109 36.1135737,9.77098109 C35.261931,9.77098109 34.6462949,10.2019263 34.266647,11.0638298 C33.886999,11.9257332 33.6971779,13.2288296 33.6971779,14.973158 Z M40.7462815,14.973158 C40.7462815,17.3126102 40.3538135,19.0799988 39.5688657,20.2753768 C38.783918,21.4707548 37.6321655,22.0684348 36.1135737,22.0684348 C34.6770679,22.0684348 33.5612275,21.457929 32.766019,20.2368991 C31.9708105,19.0158693 31.5732122,17.2613064 31.5732122,14.973158 C31.5732122,12.6439666 31.9554196,10.8894037 32.7198458,9.70941686 C33.4842721,8.52943001 34.6155034,7.93944543 36.1135737,7.93944543 C37.6013832,7.93944543 38.7454402,8.54995121 39.5457792,9.77098109 C40.3461181,10.992011 40.7462815,12.7260526 40.7462815,14.973158 Z M47.2413071,23.9923168 C47.2413071,25.7469059 47.4311283,27.0576978 47.8107762,27.9247316 C48.1904241,28.7917654 48.8111905,29.2252758 49.673094,29.2252758 C50.5349974,29.2252758 51.1711547,28.7968957 51.5815849,27.9401226 C51.9920151,27.0833496 52.1972271,25.7674274 52.1972271,23.9923168 C52.1972271,22.2377276 51.9920151,20.9371964 51.5815849,20.0906841 C51.1711547,19.2441718 50.5349974,18.820922 49.673094,18.820922 C48.8111905,18.820922 48.1904241,19.2441718 47.8107762,20.0906841 C47.4311283,20.9371964 47.2413071,22.2377276 47.2413071,23.9923168 Z M54.3058018,23.9923168 C54.3058018,26.3215082 53.9133338,28.0837665 53.128386,29.2791445 C52.3434383,30.4745225 51.1916858,31.0722025 49.673094,31.0722025 C48.2160667,31.0722025 47.095096,30.4616967 46.3101482,29.2406669 C45.5252005,28.019637 45.1327325,26.2702045 45.1327325,23.9923168 C45.1327325,21.6631253 45.5149399,19.9085625 46.2793661,18.7285757 C47.0437924,17.5485888 48.1750237,16.9586042 49.673094,16.9586042 C51.1301212,16.9586042 52.2664828,17.5614145 53.0822129,18.7670533 C53.8979429,19.972692 54.3058018,21.7144291 54.3058018,23.9923168 Z M50.3349094,8.2626576 L37.852763,30.7643814 L35.5902778,30.7643814 L48.0724242,8.2626576 L50.3349094,8.2626576 Z" id="%" fill="#FFFFFF"></path>
            </g>
        </g>
    </g>
</svg>