<?xml version="1.0" encoding="UTF-8"?>
<svg width="60px" height="48px" viewBox="0 0 60 48" version="1.1" xmlns="http://www.w3.org/2000/svg" xmlns:xlink="http://www.w3.org/1999/xlink">
    <!-- Generator: Sketch 45.2 (43514) - http://www.bohemiancoding.com/sketch -->
    <title>ic_p4p</title>
    <desc>Created with Sketch.</desc>
    <defs></defs>
    <g id="Page-1" stroke="none" stroke-width="1" fill="none" fill-rule="evenodd">
        <g id="ic_front_商城首页80%缩小版" transform="translate(-630.000000, -114.000000)">
            <g id="Page-1" transform="translate(637.000000, 126.000000)" fill="#707473">
                <path d="M25.4013691,16.0181822 L26.4324036,16.0181822 C26.520438,16.0181822 26.5910242,16.0895615 26.5910242,16.1768029 L26.5910242,17.8423201 C26.5910242,17.9295615 26.520438,18.0009408 26.4324036,18.0009408 L25.4013691,18.0009408 L25.4013691,16.0181822 Z" id="Fill-1"></path>
                <path d="M19.3737036,16.0677511 L20.6426691,16.0677511 L20.6426691,18.0505097 L19.3737036,18.0505097 C19.1984277,18.0505097 19.0564622,17.9085442 19.0564622,17.7332684 L19.0564622,16.3849925 C19.0564622,16.2097166 19.1984277,16.0677511 19.3737036,16.0677511" id="Fill-3"></path>
                <path d="M23.0220587,18.4470615 C22.2559208,18.4470615 21.6341277,17.8260615 21.6341277,17.0591304 C21.6341277,16.2921994 22.2559208,15.6711994 23.0220587,15.6711994 C23.7881967,15.6711994 24.4099898,16.2921994 24.4099898,17.0591304 C24.4099898,17.8260615 23.7881967,18.4470615 23.0220587,18.4470615 M24.7668863,15.0763718 L21.2772311,15.0763718 C20.9266794,15.0763718 20.6427484,15.3603029 20.6427484,15.7108546 L20.6427484,18.4074063 C20.6427484,18.757958 20.9266794,19.0418891 21.2772311,19.0418891 L24.7668863,19.0418891 C25.117438,19.0418891 25.4013691,18.757958 25.4013691,18.4074063 L25.4013691,15.7108546 C25.4013691,15.3603029 25.117438,15.0763718 24.7668863,15.0763718" id="Fill-5"></path>
                <path d="M23.0220587,16.0677511 C23.5693001,16.0677511 24.013438,16.5118891 24.013438,17.0591304 C24.013438,17.6063718 23.5693001,18.0505097 23.0220587,18.0505097 C22.4748174,18.0505097 22.0306794,17.6063718 22.0306794,17.0591304 C22.0306794,16.5118891 22.4748174,16.0677511 23.0220587,16.0677511" id="Fill-7"></path>
                <polygon id="Fill-9" points="22.2291139 15.0762925 23.8153208 15.0762925 23.8153208 13.4900856 22.2291139 13.4900856"></polygon>
                <path d="M21.6341277,12.3005097 L24.4099898,12.3005097 L24.4099898,13.1729235 C24.4099898,13.3481994 24.2680242,13.4901649 24.0927484,13.4901649 L21.9513691,13.4901649 C21.7760932,13.4901649 21.6341277,13.3481994 21.6341277,13.1729235 L21.6341277,12.3005097 Z" id="Fill-11"></path>
                <path d="M21.4358518,11.1108546 L24.6082656,11.1108546 L24.6082656,11.9832684 C24.6082656,12.1585442 24.4663001,12.3005097 24.2910242,12.3005097 L21.7530932,12.3005097 C21.5778174,12.3005097 21.4358518,12.1585442 21.4358518,11.9832684 L21.4358518,11.1108546 Z" id="Fill-12"></path>
                <path d="M16.2148518,9.52464768 C15.9943691,9.52464768 15.8159208,9.34699251 15.8159208,9.12809596 C15.8159208,8.9091994 15.9943691,8.73154423 16.2148518,8.73154423 C16.4353346,8.73154423 16.6137829,8.9091994 16.6137829,9.12809596 C16.6137829,9.34699251 16.4353346,9.52464768 16.2148518,9.52464768 L16.2148518,9.52464768 Z M15.8159208,7.14533733 C15.8159208,7.14533733 14.7499898,10.1464408 14.2178174,13.4901649 C13.7141967,16.6633718 13.5127484,20.1363718 13.4469208,21.5552339 C13.4302656,21.9168891 13.7205415,22.2143029 14.0853691,22.2143029 L14.4034036,22.2143029 C14.744438,22.2143029 15.0259898,21.9509925 15.0418518,21.6115442 C15.1037139,20.2315442 15.303576,16.7093718 15.8159208,13.4901649 C16.346507,10.1511994 18.2110932,7.14533733 18.2110932,7.14533733 L15.8159208,7.14533733 Z" id="Fill-13"></path>
                <path d="M29.7777932,9.52464768 C29.5573105,9.52464768 29.3788622,9.34699251 29.3788622,9.12809596 C29.3788622,8.9091994 29.5573105,8.73154423 29.7777932,8.73154423 C29.998276,8.73154423 30.1767242,8.9091994 30.1767242,9.12809596 C30.1767242,9.34699251 29.998276,9.52464768 29.7777932,9.52464768 M31.7740346,13.4901649 C31.2426553,10.1464408 30.1767242,7.14533733 30.1767242,7.14533733 L27.7815518,7.14533733 C27.7815518,7.14533733 29.646138,10.1511994 30.1767242,13.4901649 C30.688276,16.7093718 30.8889311,20.2315442 30.9507932,21.6115442 C30.9666553,21.9509925 31.248207,22.2143029 31.5892415,22.2143029 L31.907276,22.2143029 C32.2721036,22.2143029 32.5623794,21.9168891 32.5457242,21.5552339 C32.4798967,20.1363718 32.2784484,16.6633718 31.7740346,13.4901649" id="Fill-14"></path>
                <path d="M7.11898632,0.00740630051 C7.55677942,0.00740630051 7.91208977,0.361923542 7.91208977,0.800509749 L7.91208977,1.5936132 L6.32588287,1.5936132 L6.32588287,0.800509749 C6.32588287,0.361923542 6.68119321,0.00740630051 7.11898632,0.00740630051" id="Fill-15"></path>
                <path d="M8.11036563,1.5936132 L13.1465725,1.5936132 C13.3218484,1.5936132 13.4638139,1.45164768 13.4638139,1.27637182 L13.4638139,1.11775113 C13.4638139,0.942475266 13.3218484,0.800509749 13.1465725,0.800509749 L8.11036563,0.800509749 L8.11036563,1.5936132 Z M1.09140011,1.5936132 L6.12760701,1.5936132 L6.12760701,0.800509749 L1.09140011,0.800509749 C0.916124249,0.800509749 0.774158732,0.942475266 0.774158732,1.11775113 L0.774158732,1.27637182 C0.774158732,1.45164768 0.916124249,1.5936132 1.09140011,1.5936132 L1.09140011,1.5936132 Z" id="Fill-16"></path>
                <path d="M6.24649321,1.79188906 L7.9913208,1.79188906 C8.16659666,1.79188906 8.30856218,1.93385458 8.30856218,2.10913044 L8.30856218,4.05223389 C8.30856218,4.22750975 8.16659666,4.36947527 7.9913208,4.36947527 L6.24649321,4.36947527 C6.07121735,4.36947527 5.92925184,4.22750975 5.92925184,4.05223389 L5.92925184,2.10913044 C5.92925184,1.93385458 6.07121735,1.79188906 6.24649321,1.79188906" id="Fill-17"></path>
                <path d="M38.8841277,0.00740630051 C39.3219208,0.00740630051 39.6772311,0.361923542 39.6772311,0.800509749 L39.6772311,1.5936132 L38.0910242,1.5936132 L38.0910242,0.800509749 C38.0910242,0.361923542 38.4463346,0.00740630051 38.8841277,0.00740630051" id="Fill-18"></path>
                <path d="M37.8927484,1.5936132 L32.8565415,1.5936132 C32.6812656,1.5936132 32.5393001,1.45164768 32.5393001,1.27637182 L32.5393001,1.11775113 C32.5393001,0.942475266 32.6812656,0.800509749 32.8565415,0.800509749 L37.8927484,0.800509749 L37.8927484,1.5936132 Z M44.9117139,1.5936132 L39.875507,1.5936132 L39.875507,0.800509749 L44.9117139,0.800509749 C45.0869898,0.800509749 45.2289553,0.942475266 45.2289553,1.11775113 L45.2289553,1.27637182 C45.2289553,1.45164768 45.0869898,1.5936132 44.9117139,1.5936132 L44.9117139,1.5936132 Z" id="Fill-19"></path>
                <path d="M38.0116346,1.79188906 L39.7564622,1.79188906 C39.931738,1.79188906 40.0737036,1.93385458 40.0737036,2.10913044 L40.0737036,4.05223389 C40.0737036,4.22750975 39.931738,4.36947527 39.7564622,4.36947527 L38.0116346,4.36947527 C37.8363587,4.36947527 37.6943932,4.22750975 37.6943932,4.05223389 L37.6943932,2.10913044 C37.6943932,1.93385458 37.8363587,1.79188906 38.0116346,1.79188906" id="Fill-20"></path>
                <path d="M20.012707,9.43478906 L20.6202242,8.93672009 C20.6606725,8.90340975 20.7169829,8.88516837 20.7740863,8.88516837 L25.2701898,8.88516837 C25.3280863,8.88516837 25.3828105,8.90340975 25.4240518,8.93672009 L26.0315691,9.43478906 C26.1100863,9.49982354 26.214776,9.5355132 26.3258105,9.5355132 L27.5115001,9.5355132 C27.4900863,9.55058216 27.4662932,9.56406492 27.4456725,9.58072009 L25.8245691,10.7941684 C25.5501553,10.9995822 25.2162587,11.1106166 24.8728449,11.1106166 L23.0217415,11.1106166 L21.1714311,11.1106166 C20.8280174,11.1106166 20.4941208,10.9995822 20.219707,10.7941684 L18.5986036,9.58072009 C18.5771898,9.56406492 18.5541898,9.55058216 18.532776,9.5355132 L19.7184656,9.5355132 C19.828707,9.5355132 19.935776,9.49903044 20.012707,9.43478906 L20.012707,9.43478906 Z M40.4700174,5.55889251 L40.4700174,5.72623733 C40.4700174,6.07678906 40.1860863,6.35992699 39.8363277,6.35992699 L37.668776,6.35992699 C36.8970863,6.35992699 36.1293622,6.47254768 35.3901898,6.69382354 L29.9249139,8.33078906 C29.1492587,8.56316837 28.4188105,8.91927182 27.7494311,9.37292699 L26.3258105,9.37292699 C26.2679139,9.37292699 26.2123967,9.35389251 26.1719484,9.31978906 L25.5644311,8.82172009 C25.4851208,8.75747871 25.3812242,8.72258216 25.2701898,8.72258216 L20.7740863,8.72258216 C20.664638,8.72258216 20.5575691,8.75827182 20.4798449,8.8225132 L19.8723277,9.32058216 C19.8318794,9.3530994 19.7763622,9.37292699 19.7184656,9.37292699 L18.2940518,9.37292699 C17.6254656,8.91927182 16.8950174,8.56316837 16.1193622,8.33078906 L10.6540863,6.69382354 C9.9149139,6.47254768 9.14718977,6.35992699 8.37550011,6.35992699 L6.20794839,6.35992699 C5.85818977,6.35992699 5.57346563,6.07678906 5.57346563,5.72623733 L5.57346563,5.55889251 L40.4700174,5.55889251 Z M5.58377597,5.36061665 C5.60994839,5.04337527 5.86374149,4.78561665 6.1881208,4.77847871 C6.50615528,4.77054768 6.93918977,4.75072009 7.46977597,4.70234078 C8.66498287,4.59368561 13.1261898,3.05347871 17.0250863,2.69816837 C20.4750863,2.3833063 23.0217415,2.40154768 23.0217415,2.40154768 C23.0217415,2.40154768 25.5691898,2.3833063 29.0183967,2.69816837 C32.9172932,3.05347871 37.3785001,4.59368561 38.5745001,4.70234078 C39.1050863,4.75072009 39.5381208,4.77054768 39.8561553,4.77847871 C40.1805346,4.78561665 40.4343277,5.04337527 40.4605001,5.36061665 L5.58377597,5.36061665 Z" id="Fill-21"></path>
            </g>
            <g id="Slices" transform="translate(390.000000, 114.000000)"></g>
        </g>
    </g>
</svg>