<?xml version="1.0" encoding="UTF-8"?>
<svg width="60px" height="48px" viewBox="0 0 60 48" version="1.1" xmlns="http://www.w3.org/2000/svg" xmlns:xlink="http://www.w3.org/1999/xlink">
    <!-- Generator: Sketch 45.2 (43514) - http://www.bohemiancoding.com/sketch -->
    <title>ic_osmo</title>
    <desc>Created with Sketch.</desc>
    <defs></defs>
    <g id="Page-1" stroke="none" stroke-width="1" fill="none" fill-rule="evenodd">
        <g id="ic_front_商城首页80%缩小版" transform="translate(-750.000000, -114.000000)">
            <g id="Page-1" transform="translate(774.000000, 120.000000)" fill="#727473">
                <path d="M0.667935714,1.19318182 L2.86400714,1.19318182 C2.91507857,1.19318182 2.96379286,1.21863636 2.99286429,1.26238636 L3.45879286,1.94806818 C3.47686429,1.97431818 3.48629286,2.00534091 3.48629286,2.03795455 L3.48629286,5.12113636 C3.48629286,5.15375 3.47686429,5.18477273 3.45879286,5.21102273 L2.99286429,5.89670455 C2.96379286,5.94045455 2.91507857,5.96590909 2.86400714,5.96590909 L0.667935714,5.96590909 C0.618435714,5.96590909 0.571292857,5.94204545 0.542221429,5.90227273 L0.0315071429,5.21261364 C0.0110785714,5.18556818 7.85714286e-05,5.15215909 7.85714286e-05,5.11715909 L7.85714286e-05,2.04193182 C7.85714286e-05,2.00693182 0.0110785714,1.97352273 0.0315071429,1.94647727 L0.542221429,1.25681818 C0.571292857,1.21704545 0.618435714,1.19318182 0.667935714,1.19318182 Z" id="Fill-1"></path>
                <path d="M3.92857143,3.57954545 C3.92857143,4.15386364 4.07471429,4.68920455 4.312,5.17045455 L3.68342857,5.17045455 L3.68342857,1.98863636 L4.312,1.98863636 C4.07471429,2.46988636 3.92857143,3.00522727 3.92857143,3.57954545" id="Fill-3"></path>
                <path d="M7.46428571,1.59090909 C8.54935714,1.59090909 9.42857143,2.48102273 9.42857143,3.57954545 C9.42857143,4.67806818 8.54935714,5.56818182 7.46428571,5.56818182 C6.37921429,5.56818182 5.5,4.67806818 5.5,3.57954545 C5.5,2.48102273 6.37921429,1.59090909 7.46428571,1.59090909" id="Fill-5"></path>
                <path d="M7.46428571,5.96590909 C6.16235714,5.96590909 5.10714286,4.89761364 5.10714286,3.57954545 C5.10714286,2.26147727 6.16235714,1.19318182 7.46428571,1.19318182 C8.76621429,1.19318182 9.82142857,2.26147727 9.82142857,3.57954545 C9.82142857,4.89761364 8.76621429,5.96590909 7.46428571,5.96590909 M7.46428571,0 C5.51178571,0 3.92857143,1.60284091 3.92857143,3.57954545 C3.92857143,5.55625 5.51178571,7.15909091 7.46428571,7.15909091 C9.41678571,7.15909091 11,5.55625 11,3.57954545 C11,1.60284091 9.41678571,0 7.46428571,0" id="Fill-7"></path>
                <path d="M7.46428571,7.35795455 L7.46428571,8.55113636 L5.10714286,8.55113636 L5.10714286,6.48693182 C5.75142857,7.02306818 6.56464286,7.35795455 7.46428571,7.35795455" id="Fill-9"></path>
                <polygon id="Fill-11" points="4.32142857 12.5284091 8.25 12.5284091 8.25 12.1306818 4.32142857 12.1306818"></polygon>
                <path d="M3.84992143,12.7272727 L8.72135,12.7272727 C8.89499286,12.7272727 9.03563571,12.8696591 9.03563571,13.0454545 L9.03563571,14 C9.03563571,14.1757955 8.89499286,14.3181818 8.72135,14.3181818 L3.84992143,14.3181818 C3.67627857,14.3181818 3.53563571,14.1757955 3.53563571,14 L3.53563571,13.0454545 C3.53563571,12.8696591 3.67627857,12.7272727 3.84992143,12.7272727" id="Fill-13"></path>
                <path d="M6.31030714,35 L6.28595,35 L4.17395,35 C4.17395,35 3.92880714,26.5148864 3.92880714,24.2136364 C3.92880714,23.47625 4.15823571,20.0915909 4.15823571,18.9867045 C4.15823571,17.8810227 3.14309286,16.0594318 3.14309286,15.4318182 C3.14309286,14.8042045 3.23816429,14.7898864 3.39295,14.5170455 L6.28595,14.5170455 L6.31030714,14.5170455 L9.17816429,14.5170455 C9.33295,14.7898864 9.42880714,14.8042045 9.42880714,15.4318182 C9.42880714,16.0594318 8.41287857,17.8810227 8.41287857,18.9867045 C8.41287857,20.0915909 8.64309286,23.47625 8.64309286,24.2136364 C8.64309286,26.5148864 8.39716429,35 8.39716429,35" id="Fill-14"></path>
                <path d="M4.24277857,8.75 L8.32849286,8.75 C8.50213571,8.75 8.64277857,8.89238636 8.64277857,9.06818182 L8.64277857,11.6136364 C8.64277857,11.7894318 8.50213571,11.9318182 8.32849286,11.9318182 L4.24277857,11.9318182 C4.06913571,11.9318182 3.92849286,11.7894318 3.92849286,11.6136364 L3.92849286,9.06818182 C3.92849286,8.89238636 4.06913571,8.75 4.24277857,8.75" id="Fill-15"></path>
            </g>
            <g id="Slices" transform="translate(390.000000, 114.000000)"></g>
        </g>
    </g>
</svg>