<?xml version="1.0" encoding="UTF-8"?>
<svg width="60px" height="48px" viewBox="0 0 60 48" version="1.1" xmlns="http://www.w3.org/2000/svg" xmlns:xlink="http://www.w3.org/1999/xlink">
    <!-- Generator: Sketch 45.2 (43514) - http://www.bohemiancoding.com/sketch -->
    <title>ic_goggles</title>
    <desc>Created with Sketch.</desc>
    <defs></defs>
    <g id="Page-1" stroke="none" stroke-width="1" fill="none" fill-rule="evenodd">
        <g id="ic_front_商城首页80%缩小版" transform="translate(-1350.000000, -114.000000)">
            <path d="M1381.83584,144.76961 L1381.69109,144.286432 C1381.55987,143.850451 1381.49306,143.397671 1381.49306,142.943291 L1381.49306,137.457135 C1381.49306,137.002755 1381.55987,136.550776 1381.69109,136.113995 L1381.83584,135.630816 C1381.87719,135.494022 1382.00603,135.400427 1382.15237,135.400427 L1381.36581,135.400427 C1381.23061,135.400427 1381.10893,135.476423 1381.06041,135.598818 C1380.84965,136.125994 1380.32077,137.697125 1380.32077,140.200213 C1380.32077,142.703302 1380.84965,144.274432 1381.06041,144.802409 C1381.10893,144.924003 1381.23061,145 1381.36581,145 L1382.15237,145 C1382.00603,145 1381.87719,144.906404 1381.83584,144.76961 L1381.83584,144.76961 Z M1385.74796,132.754944 L1383.18866,134.975646 L1385.52289,134.975646 L1385.74796,132.754944 Z M1394.22755,143.720057 C1394.22755,143.764055 1394.19176,143.800053 1394.14802,143.800053 L1393.90943,143.800053 C1393.86569,143.800053 1393.8299,143.764055 1393.8299,143.720057 L1393.8299,143.080085 C1393.8299,143.036087 1393.86569,143.000089 1393.90943,143.000089 L1394.14802,143.000089 C1394.19176,143.000089 1394.22755,143.036087 1394.22755,143.080085 L1394.22755,143.720057 Z M1393.03459,143.720057 C1393.03459,143.764055 1392.9988,143.800053 1392.95506,143.800053 L1392.71646,143.800053 C1392.67272,143.800053 1392.63693,143.764055 1392.63693,143.720057 L1392.63693,143.080085 C1392.63693,143.036087 1392.67272,143.000089 1392.71646,143.000089 L1392.95506,143.000089 C1392.9988,143.000089 1393.03459,143.036087 1393.03459,143.080085 L1393.03459,143.720057 Z M1391.84162,143.720057 C1391.84162,143.764055 1391.80584,143.800053 1391.76209,143.800053 L1391.5235,143.800053 C1391.47976,143.800053 1391.44397,143.764055 1391.44397,143.720057 L1391.44397,143.080085 C1391.44397,143.036087 1391.47976,143.000089 1391.5235,143.000089 L1391.76209,143.000089 C1391.80584,143.000089 1391.84162,143.036087 1391.84162,143.080085 L1391.84162,143.720057 Z M1390.64866,143.720057 C1390.64866,143.764055 1390.61287,143.800053 1390.56913,143.800053 L1390.33054,143.800053 C1390.28679,143.800053 1390.25101,143.764055 1390.25101,143.720057 L1390.25101,143.080085 C1390.25101,143.036087 1390.28679,143.000089 1390.33054,143.000089 L1390.56913,143.000089 C1390.61287,143.000089 1390.64866,143.036087 1390.64866,143.080085 L1390.64866,143.720057 Z M1388.26273,144.200036 C1387.82372,144.200036 1387.46742,143.841651 1387.46742,143.400071 C1387.46742,142.958491 1387.82372,142.600107 1388.26273,142.600107 C1388.70174,142.600107 1389.05804,142.958491 1389.05804,143.400071 C1389.05804,143.841651 1388.70174,144.200036 1388.26273,144.200036 L1388.26273,144.200036 Z M1396.26036,135.598818 C1396.21185,135.476423 1396.09017,135.400427 1395.95496,135.400427 L1385.73126,135.400427 C1385.58493,135.400427 1385.45609,135.494022 1385.41473,135.630816 L1385.26998,136.113995 C1385.13876,136.550776 1385.07195,137.002755 1385.07195,137.457135 L1385.07195,142.943291 C1385.07195,143.397671 1385.13876,143.850451 1385.26998,144.286432 L1385.41473,144.76961 C1385.45609,144.906404 1385.58493,145 1385.73126,145 L1395.95496,145 C1396.09017,145 1396.21185,144.924003 1396.26036,144.802409 C1396.47112,144.274432 1397,142.703302 1397,140.200213 C1397,137.697125 1396.47112,136.125994 1396.26036,135.598818 L1396.26036,135.598818 Z M1385.01708,144.76961 L1384.87233,144.286432 C1384.7411,143.850451 1384.6743,143.397671 1384.6743,142.943291 L1384.6743,137.457135 C1384.6743,137.002755 1384.7411,136.550776 1384.87233,136.113995 L1385.01708,135.630816 C1385.05764,135.497222 1385.18329,135.406826 1385.32645,135.402827 L1385.47915,135.402827 L1385.47995,135.400427 L1382.55003,135.400427 C1382.40369,135.400427 1382.27485,135.494022 1382.23349,135.630816 L1382.08875,136.113995 C1381.95752,136.550776 1381.89071,137.002755 1381.89071,137.457135 L1381.89071,142.943291 C1381.89071,143.397671 1381.95752,143.850451 1382.08875,144.286432 L1382.23349,144.76961 C1382.27485,144.906404 1382.40369,145 1382.55003,145 L1385.33361,145 C1385.18727,145 1385.05843,144.906404 1385.01708,144.76961 L1385.01708,144.76961 Z M1369.11884,137.020355 C1368.94308,136.714768 1368.53906,136.617973 1368.21696,136.805164 L1362.34678,140.214613 C1362.02468,140.401804 1361.90539,140.800987 1362.08115,141.107373 L1363.83083,144.155238 C1364.00659,144.461624 1364.40982,144.55762 1364.73271,144.370428 L1369.08226,141.84494 C1369.26836,141.736945 1369.43219,141.596951 1369.5674,141.431359 L1370.50189,140.28261 C1370.67526,140.069819 1370.7031,139.781832 1370.57346,139.554642 L1369.11884,137.020355 Z M1376.06189,135.77561 L1375.64833,136.015599 C1375.57278,136.059597 1375.47495,136.033199 1375.43121,135.956402 L1374.79496,134.848451 C1374.75122,134.771655 1374.77747,134.674059 1374.85302,134.630061 L1375.26658,134.390072 C1375.34293,134.346074 1375.43996,134.371672 1375.4837,134.448469 L1376.11995,135.55642 C1376.16449,135.633216 1376.13745,135.731612 1376.06189,135.77561 L1376.06189,135.77561 Z M1385.92055,134.975646 L1394.11223,134.975646 C1392.85405,134.64766 1391.14414,134.171681 1389.77859,133.678903 C1388.4202,133.186925 1387.58911,132.682147 1387.13339,132.346962 C1387.07454,132.303764 1387.01092,132.276565 1386.9465,132.251767 C1387.02841,132.219768 1387.10158,132.191769 1387.16202,132.16857 C1387.27178,132.126972 1387.30279,131.987778 1387.22167,131.904582 C1387.12942,131.810186 1387.00296,131.682192 1386.85344,131.533399 C1386.8272,131.5078 1386.78664,131.5022 1386.75483,131.520599 L1385.94759,131.988578 C1385.90862,132.011777 1385.85931,131.998978 1385.83704,131.95978 L1385.51573,131.401404 C1385.49426,131.362206 1385.50778,131.312608 1385.54675,131.290209 L1386.10347,130.967024 C1386.15119,130.939025 1386.15993,130.873428 1386.11937,130.836629 C1385.76228,130.512644 1384.96697,129.47909 1384.56932,129.183903 C1383.85831,128.655926 1383.0638,128.35514 1382.83475,128.274343 C1382.79021,128.258344 1382.74726,128.265544 1382.70511,128.289543 L1369.67556,135.856406 C1369.36459,136.037198 1369.25643,136.433981 1369.43299,136.742767 L1371.1946,139.811431 C1371.37195,140.120217 1371.76722,140.223412 1372.07819,140.04342 L1380.24442,135.301231 C1382.0625,134.245278 1384.65441,133.158926 1386.1663,132.557353 L1385.92055,134.975646 Z M1378.27842,130.131061 C1378.3667,130.283854 1378.56075,130.336652 1378.71345,130.247856 L1382.56991,128.007955 C1382.56991,128.007955 1381.6394,127.463979 1380.7574,127.22639 C1380.02333,127.028799 1379.23597,127 1379.23597,127 L1377.44494,128.039154 C1377.29383,128.12795 1377.24134,128.323141 1377.32882,128.476734 L1378.27842,130.131061 Z" id="Fill-1" fill="#717171"></path>
            <g id="Slices" transform="translate(390.000000, 114.000000)"></g>
        </g>
    </g>
</svg>