<?xml version="1.0" encoding="UTF-8"?>
<svg width="60px" height="48px" viewBox="0 0 60 48" version="1.1" xmlns="http://www.w3.org/2000/svg" xmlns:xlink="http://www.w3.org/1999/xlink">
    <!-- Generator: Sketch 45.2 (43514) - http://www.bohemiancoding.com/sketch -->
    <title>ic_in2</title>
    <desc>Created with Sketch.</desc>
    <defs></defs>
    <g id="Page-1" stroke="none" stroke-width="1" fill="none" fill-rule="evenodd">
        <g id="ic_front_商城首页80%缩小版" transform="translate(-870.000000, -114.000000)">
            <g id="Page-1" transform="translate(877.000000, 125.000000)" fill="#727473">
                <path d="M7.14998685,7.52549362 L7.90777632,15.1548686 C7.92391667,15.3206186 8.06272369,15.4473686 8.2289693,15.4473686 L8.42103948,15.4473686 C8.59939035,15.4473686 8.74384649,15.3019311 8.74384649,15.1223686 L8.74384649,7.52549362 L7.14998685,7.52549362 Z" id="Fill-1"></path>
                <path d="M6.64802193,2.44736862 L9.23047807,2.44736862 C9.40882895,2.44736862 9.55328509,2.59280612 9.55328509,2.77236862 L9.55328509,6.99736862 C9.55328509,7.17693112 9.40882895,7.32236862 9.23047807,7.32236862 L6.64802193,7.32236862 C6.46967106,7.32236862 6.32521492,7.17693112 6.32521492,6.99736862 L6.32521492,2.77236862 C6.32521492,2.59280612 6.46967106,2.44736862 6.64802193,2.44736862" id="Fill-3"></path>
                <path d="M20.647436,9.43933737 L9.75269913,3.57552487 L9.75269913,5.45239987 L20.647436,11.3162124 L20.647436,9.43933737 Z M20.6659974,13.2036499 C20.6546991,13.0175874 20.647436,12.8185249 20.647436,12.6040249 L20.647436,12.2546499 L9.75269913,6.39002487 L9.75269913,7.32846237 L20.6659974,13.2036499 Z" id="Fill-5"></path>
                <path d="M8.00195527,0.416118622 C8.44742895,0.416118622 8.80897281,0.779306122 8.80897281,1.22861862 L8.80897281,2.04111862 L7.19493772,2.04111862 L7.19493772,1.22861862 C7.19493772,0.779306122 7.55648158,0.416118622 8.00195527,0.416118622" id="Fill-7"></path>
                <path d="M9.0107272,2.04111862 L14.9423061,2.04111862 C15.120657,2.04111862 15.2651132,1.89568112 15.2651132,1.71611862 L15.2651132,1.55361862 C15.2651132,1.37405612 15.120657,1.22861862 14.9423061,1.22861862 L9.0107272,1.22861862 L9.0107272,2.04111862 Z M1.06160439,2.04111862 L6.99318334,2.04111862 L6.99318334,1.22861862 L1.06160439,1.22861862 C0.883253512,1.22861862 0.738797372,1.37405612 0.738797372,1.55361862 L0.738797372,1.71611862 C0.738797372,1.89568112 0.883253512,2.04111862 1.06160439,2.04111862 L1.06160439,2.04111862 Z" id="Fill-9"></path>
                <path d="M38.6816149,0.416118622 C39.1270886,0.416118622 39.4886325,0.779306122 39.4886325,1.22861862 L39.4886325,2.04111862 L37.8745974,2.04111862 L37.8745974,1.22861862 C37.8745974,0.779306122 38.2361412,0.416118622 38.6816149,0.416118622" id="Fill-11"></path>
                <path d="M37.672843,2.04111862 L31.741264,2.04111862 C31.5629132,2.04111862 31.418457,1.89568112 31.418457,1.71611862 L31.418457,1.55361862 C31.418457,1.37405612 31.5629132,1.22861862 31.741264,1.22861862 L37.672843,1.22861862 L37.672843,2.04111862 Z M45.6219658,2.04111862 L39.6903868,2.04111862 L39.6903868,1.22861862 L45.6219658,1.22861862 C45.8003167,1.22861862 45.9447728,1.37405612 45.9447728,1.55361862 L45.9447728,1.71611862 C45.9447728,1.89568112 45.8003167,2.04111862 45.6219658,2.04111862 L45.6219658,2.04111862 Z" id="Fill-13"></path>
                <path d="M39.4685377,7.52549362 L38.7107482,15.1548686 C38.6946079,15.3206186 38.5549939,15.4473686 38.3895553,15.4473686 L38.1974851,15.4473686 C38.0191342,15.4473686 37.8746781,15.3019311 37.8746781,15.1223686 L37.8746781,7.52549362 L39.4685377,7.52549362 Z" id="Fill-16"></path>
                <path d="M37.3903061,2.44736862 L39.9727623,2.44736862 C40.1511132,2.44736862 40.2955693,2.59280612 40.2955693,2.77236862 L40.2955693,6.99736862 C40.2955693,7.17693112 40.1511132,7.32236862 39.9727623,7.32236862 L37.3903061,7.32236862 C37.2119553,7.32236862 37.0674991,7.17693112 37.0674991,6.99736862 L37.0674991,2.77236862 C37.0674991,2.59280612 37.2119553,2.44736862 37.3903061,2.44736862" id="Fill-18"></path>
                <path d="M25.9710886,9.43933737 L36.8658254,3.57552487 L36.8658254,5.45239987 L25.9710886,11.3162124 L25.9710886,9.43933737 Z M25.9525272,13.2036499 C25.9638254,13.0175874 25.9710886,12.8185249 25.9710886,12.6040249 L25.9710886,12.2546499 L36.8658254,6.39002487 L36.8658254,7.32846237 L25.9525272,13.2036499 Z" id="Fill-20"></path>
                <path d="M23.3482816,21.9473686 C24.0172991,21.9473686 24.5588079,22.4933686 24.5588079,23.1661186 C24.5588079,23.8388686 24.0172991,24.3848686 23.3482816,24.3848686 C22.679264,24.3848686 22.1377553,23.8388686 22.1377553,23.1661186 C22.1377553,22.4933686 22.679264,21.9473686 23.3482816,21.9473686" id="Fill-22"></path>
                <path d="M20.7254746,23.1661186 C20.7254746,23.4521186 20.7819658,23.7210561 20.8650886,23.9786186 L20.2816149,23.9786186 C20.192036,23.9786186 20.1202114,23.9054936 20.1202114,23.8161186 L20.1202114,22.5161186 C20.1202114,22.4267436 20.192036,22.3536186 20.2816149,22.3536186 L20.8650886,22.3536186 C20.7819658,22.6111811 20.7254746,22.8801186 20.7254746,23.1661186" id="Fill-24"></path>
                <path d="M23.3482816,24.7911186 C22.4573342,24.7911186 21.7342465,24.0631186 21.7342465,23.1661186 C21.7342465,22.2691186 22.4573342,21.5411186 23.3482816,21.5411186 C24.239229,21.5411186 24.9623167,22.2691186 24.9623167,23.1661186 C24.9623167,24.0631186 24.239229,24.7911186 23.3482816,24.7911186 M23.3482816,20.7286186 C22.0110535,20.7286186 20.927229,21.8198061 20.927229,23.1661186 C20.927229,24.5124311 22.0110535,25.6036186 23.3482816,25.6036186 C24.6855097,25.6036186 25.7693342,24.5124311 25.7693342,23.1661186 C25.7693342,21.8198061 24.6855097,20.7286186 23.3482816,20.7286186" id="Fill-26"></path>
                <path d="M23.3482816,20.5254936 C23.2102816,20.5254936 23.0771237,20.5449936 22.9447728,20.5669311 L22.9447728,19.7129936 L23.7517904,19.7129936 L23.7517904,20.5669311 C23.6194395,20.5449936 23.4862816,20.5254936 23.3482816,20.5254936" id="Fill-28"></path>
                <path d="M24.5588079,17.6817436 L24.5588079,19.1848686 C24.5588079,19.3644311 24.4143518,19.5098686 24.2360009,19.5098686 L22.4605623,19.5098686 C22.2822114,19.5098686 22.1377553,19.3644311 22.1377553,19.1848686 L22.1377553,17.6817436 L24.5588079,17.6817436 Z" id="Fill-30"></path>
                <polygon id="Fill-32" points="22.647629 15.2966499 19.8521202 16.9216499 20.0538746 17.2742749 22.8493833 15.6492749"></polygon>
                <path d="M20.0950325,16.4629936 C20.4291377,16.4629936 20.7002956,16.7359936 20.7002956,17.0723686 C20.7002956,17.4087436 20.4291377,17.6817436 20.0950325,17.6817436 C19.7609272,17.6817436 19.4897693,17.4087436 19.4897693,17.0723686 C19.4897693,16.7359936 19.7609272,16.4629936 20.0950325,16.4629936" id="Fill-34"></path>
                <polygon id="Fill-36" points="24.0185904 15.2966499 26.8140991 16.9216499 26.6123447 17.2742749 23.816836 15.6492749"></polygon>
                <path d="M26.5763518,16.4629936 C26.910457,16.4629936 27.1816149,16.7359936 27.1816149,17.0723686 C27.1816149,17.4087436 26.910457,17.6817436 26.5763518,17.6817436 C26.2422465,17.6817436 25.9710886,17.4087436 25.9710886,17.0723686 C25.9710886,16.7359936 26.2422465,16.4629936 26.5763518,16.4629936" id="Fill-38"></path>
                <polygon id="Fill-40" points="20.1201307 17.4786186 26.5762711 17.4786186 26.5762711 16.6661186 20.1201307 16.6661186"></polygon>
                <path d="M25.1475272,16.4629936 C25.2419482,16.1997436 25.366229,15.8942436 25.366229,15.0411186 L23.3486851,15.0411186 L21.3311412,15.0411186 C21.3311412,15.8942436 21.4546149,16.1997436 21.549036,16.4629936 L23.3486851,16.4629936 L25.1475272,16.4629936 Z" id="Fill-42"></path>
                <path d="M25.3658254,15.0411186 L23.3482816,15.0411186 L21.3307377,15.0411186 C21.3307377,15.0411186 20.927229,14.2749311 20.927229,12.6036186 L20.927229,8.94736862 C20.927229,7.82530612 22.0110535,6.91611862 23.3482816,6.91611862 C24.6855097,6.91611862 25.7693342,7.82530612 25.7693342,8.94736862 L25.7693342,12.6036186 C25.7693342,14.2749311 25.3658254,15.0411186 25.3658254,15.0411186" id="Fill-43"></path>
            </g>
            <g id="Slices" transform="translate(390.000000, 114.000000)"></g>
        </g>
    </g>
</svg>