<?xml version="1.0" encoding="UTF-8"?>
<svg width="60px" height="48px" viewBox="0 0 60 48" version="1.1" xmlns="http://www.w3.org/2000/svg" xmlns:xlink="http://www.w3.org/1999/xlink">
    <!-- Generator: Sketch 45.2 (43514) - http://www.bohemiancoding.com/sketch -->
    <title>ic_R2</title>
    <desc>Created with Sketch.</desc>
    <defs></defs>
    <g id="Page-1" stroke="none" stroke-width="1" fill="none" fill-rule="evenodd">
        <g id="ic_front_商城首页80%缩小版" transform="translate(-990.000000, -114.000000)">
            <g id="Page-1" transform="translate(1005.000000, 119.000000)" fill="#727473">
                <path d="M28.4210526,28.1054413 C28.4210526,28.8172891 28.185,29.5186804 27.7563158,30.0801152 L24.1768421,34.769463 C23.8752632,35.1635935 23.4221053,35.3896152 22.9318421,35.3896152 L15.0181579,35.3823761 L7.07131579,35.3896152 C6.57789474,35.3896152 6.12473684,35.1635935 5.82315789,34.769463 L2.24447368,30.0809196 C1.815,29.5186804 1.57894737,28.8172891 1.57894737,28.1054413 L1.57894737,13.7212891 C1.57894737,13.0094413 1.815,12.30805 2.24368421,11.7466152 L5.82473684,7.05485435 C6.12552632,6.66072391 6.58026316,6.43389783 7.07131579,6.43389783 L8.88236842,6.43389783 C9.645,6.43389783 10.3815789,6.15318043 10.9571053,5.64241957 L12.7815789,4.02246304 L17.2184211,4.02246304 L19.0428947,5.64241957 C19.6184211,6.15318043 20.355,6.43389783 21.1184211,6.43389783 L22.9294737,6.43389783 C23.4205263,6.43389783 23.8744737,6.66072391 24.1760526,7.0556587 L27.7563158,11.7458109 C28.185,12.3072457 28.4210526,13.008637 28.4210526,13.7212891 L28.4210526,28.1054413 Z M29.0021053,10.7580717 L25.4218421,6.06791957 C24.8234211,5.28368043 23.9036842,4.82600652 22.9286842,4.82600652 L21.1184211,4.82600652 C20.7363158,4.82600652 20.3676316,4.68524565 20.0802632,4.42946304 L18.2565789,2.80950652 C17.9684211,2.55372391 17.5997368,2.41296304 17.2184211,2.41296304 L15.0173684,2.41296304 L15,2.41296304 L14.9826316,2.41296304 L12.7815789,2.41296304 C12.4002632,2.41296304 12.0315789,2.55372391 11.7434211,2.80950652 L9.91973684,4.42946304 C9.63236842,4.68524565 9.26368421,4.82600652 8.88157895,4.82600652 L7.07131579,4.82600652 C6.09631579,4.82600652 5.17657895,5.28368043 4.57815789,6.06791957 L0.997894737,10.7580717 C0.350526316,11.60505 0,12.6482891 0,13.7212891 L0,28.1054413 C0,29.1784413 0.350526316,30.2208761 0.997894737,31.0686587 L4.57657895,35.7563978 C5.17578947,36.5414413 6.09710526,36.9999196 7.07289474,36.9991152 L14.9834211,36.9902674 L15,36.9902674 L15.0165789,36.9902674 L22.9271053,36.9991152 C23.9028947,36.9999196 24.8242105,36.5414413 25.4234211,35.7563978 L29.0021053,31.0686587 C29.6486842,30.2208761 30,29.1784413 30,28.1054413 L30,13.7212891 C30,12.6482891 29.6486842,11.60505 29.0021053,10.7580717 L29.0021053,10.7580717 Z" id="Fill-29"></path>
                <path d="M13.9886842,10.7454435 L13.4210526,10.4562804 L13.4210526,9.0615413 L16.5789474,9.0615413 L16.5789474,10.4562804 L16.0121053,10.7450413 L16.0121053,18.4997587 L20.5263158,18.4997587 L20.5263158,19.3041065 L16.0121053,19.3041065 L16.0121053,21.1970932 C16.2326647,21.3315428 16.4252979,21.5086139 16.5790545,21.71715 L20.5264737,21.71715 L20.5264737,17.0521739 C20.5264737,16.9628913 20.5967368,16.8913043 20.6843684,16.8913043 L21.1580526,16.8913043 C21.2448947,16.8913043 21.3159474,16.9628913 21.3159474,17.0521739 L21.3159474,21.71715 L22.1052632,21.71715 L22.1052632,24.1301935 L21.3159474,24.1301935 L21.3159474,30.4043478 C21.3159474,30.4936304 21.2448947,30.5652174 21.1580526,30.5652174 L20.6843684,30.5652174 C20.5967368,30.5652174 20.5264737,30.4936304 20.5264737,30.4043478 L20.5264737,24.1301935 L16.5791558,24.1301935 C16.2191169,24.6186545 15.6458504,24.9347826 15,24.9347826 C14.3541496,24.9347826 13.7808831,24.6186545 13.4208442,24.1301935 L9.47384211,24.1301935 L9.47384211,28.1519326 L20.5263158,28.1519326 L20.5263158,28.3057683 C20.5264207,28.3081795 20.5264737,28.3106049 20.5264737,28.3130435 L20.5264737,29.6 C20.5264737,29.6884783 20.4554211,29.7608696 20.3685789,29.7608696 L17.5264737,29.7608696 C17.4388421,29.7608696 17.3685789,29.6884783 17.3685789,29.6 L17.3685789,28.9562804 L16.1843684,28.9562804 L16.1843684,29.6 C16.1843684,29.6884783 16.1133158,29.7608696 16.0264737,29.7608696 L13.9738421,29.7608696 C13.8862105,29.7608696 13.8159474,29.6884783 13.8159474,29.6 L13.8159474,28.9562804 L12.6315789,28.9562804 L12.6315789,29.6 C12.6315789,29.6884783 12.5613158,29.7608696 12.4736842,29.7608696 L9.47384211,29.7608696 L9.47384211,30.4043478 C9.47384211,30.4936304 9.40278947,30.5652174 9.31594737,30.5652174 L8.84226316,30.5652174 C8.75463158,30.5652174 8.68436842,30.4936304 8.68436842,30.4043478 L8.68436842,24.1301935 L7.89473684,24.1301935 L7.89473684,21.71715 L8.68436842,21.71715 L8.68436842,17.0521739 C8.68436842,16.9628913 8.75463158,16.8913043 8.84226316,16.8913043 L9.31594737,16.8913043 C9.40278947,16.8913043 9.47384211,16.9628913 9.47384211,17.0521739 L9.47384211,18.4997587 L13.9886842,18.4997587 L13.9886842,10.7454435 Z M13.9886842,21.1966122 L13.9886842,19.3041065 L9.47384211,19.3041065 L9.47384211,21.71715 L13.4209455,21.71715 C13.5748855,21.5083651 13.7677949,21.3311203 13.9886842,21.1966122 Z M5.84202632,21.3152174 L7.36965789,21.3152174 C7.54413158,21.3152174 7.68465789,21.4591957 7.68465789,21.6369565 L7.68465789,24.2108696 C7.68465789,24.3886304 7.54413158,24.5326087 7.36965789,24.5326087 L5.84202632,24.5326087 C5.66755263,24.5326087 5.52623684,24.3886304 5.52623684,24.2108696 L5.52623684,21.6369565 C5.52623684,21.4591957 5.66755263,21.3152174 5.84202632,21.3152174 Z M22.6306579,20.9130435 L24.1582895,20.9130435 C24.3319737,20.9130435 24.4732895,21.0570217 24.4732895,21.2347826 L24.4732895,24.6130435 C24.4732895,24.7908043 24.3319737,24.9347826 24.1582895,24.9347826 L22.6306579,24.9347826 C22.4561842,24.9347826 22.3148684,24.7908043 22.3148684,24.6130435 L22.3148684,21.2347826 C22.3148684,21.0570217 22.4561842,20.9130435 22.6306579,20.9130435 Z M13.5791053,27.3478261 L16.4212105,27.3478261 C16.5080526,27.3478261 16.5791053,27.419413 16.5791053,27.5086957 L16.5791053,27.7781522 C16.5791053,27.8666304 16.5080526,27.9390217 16.4212105,27.9390217 L13.5791053,27.9390217 C13.4914737,27.9390217 13.4212105,27.8666304 13.4212105,27.7781522 L13.4212105,27.5086957 C13.4212105,27.419413 13.4914737,27.3478261 13.5791053,27.3478261 Z M17.5264737,27.3478261 L20.1585789,27.3478261 C20.2462105,27.3478261 20.3172632,27.419413 20.3172632,27.5086957 L20.3172632,27.7781522 C20.3172632,27.8666304 20.2462105,27.9382174 20.1585789,27.9382174 L17.5264737,27.9382174 C17.4388421,27.9382174 17.3685789,27.8666304 17.3685789,27.7781522 L17.3685789,27.5086957 C17.3685789,27.419413 17.4388421,27.3478261 17.5264737,27.3478261 Z M12.6315789,6.64849783 L17.3684211,6.64849783 L17.3684211,8.04323696 L16.5789474,8.84758478 L13.4171053,8.84758478 L12.6315789,8.04323696 L12.6315789,6.64849783 Z M13.4210526,6.4345413 L13.4210526,4.23465 L16.5789474,4.23465 L16.5789474,6.4345413 L13.4210526,6.4345413 Z M15,0 C15.4357895,0 15.7894737,0.360347826 15.7894737,0.804347826 C15.7894737,1.24834783 15.4357895,1.60869565 15,1.60869565 C14.5642105,1.60869565 14.2105263,1.24834783 14.2105263,0.804347826 C14.2105263,0.360347826 14.5642105,0 15,0 Z M14.6052632,4.02149783 L14.6052632,1.82241087 L15.3947368,1.82241087 L15.3947368,4.02149783 L14.6052632,4.02149783 Z" id="Combined-Shape"></path>
            </g>
            <g id="Slices" transform="translate(390.000000, 114.000000)"></g>
        </g>
    </g>
</svg>