<?xml version="1.0" encoding="UTF-8"?>
<svg width="60px" height="48px" viewBox="0 0 60 48" version="1.1" xmlns="http://www.w3.org/2000/svg" xmlns:xlink="http://www.w3.org/1999/xlink">
    <!-- Generator: Sketch 45.2 (43514) - http://www.bohemiancoding.com/sketch -->
    <title>ic_m100</title>
    <desc>Created with Sketch.</desc>
    <defs></defs>
    <g id="Page-1" stroke="none" stroke-width="1" fill="none" fill-rule="evenodd">
        <g id="ic_front_商城首页80%缩小版" transform="translate(-1230.000000, -114.000000)">
            <path d="M1256.85328,134.507937 L1263.19188,134.507937 L1263.19188,132.920635 L1256.85328,132.920635 L1256.85328,134.507937 Z M1267.1535,134.825397 C1267.1535,134.650794 1267.01168,134.507937 1266.83657,134.507937 L1265.37077,134.507937 L1265.37077,124.388889 L1264.97461,124.388889 L1264.97461,134.507937 L1263.98421,134.507937 L1263.98421,132.126984 L1256.06096,132.126984 L1256.06096,134.507937 L1253.20859,134.507937 C1253.03348,134.507937 1252.89166,134.650794 1252.89166,134.825397 L1252.89166,137.365079 C1252.89166,137.540476 1253.03348,137.68254 1253.20859,137.68254 L1266.83657,137.68254 C1267.01168,137.68254 1267.1535,137.540476 1267.1535,137.365079 L1267.1535,136.888889 L1275.07675,136.888889 L1275.07675,144.031746 L1275.86908,144.031746 L1275.86908,145.619048 L1275.671,145.619048 L1275.671,148 L1276.85948,148 L1276.85948,145.619048 L1276.6614,145.619048 L1276.6614,144.031746 L1277.45373,144.031746 L1277.45373,135.301587 L1267.1535,135.301587 L1267.1535,134.825397 Z M1261.60723,139.865079 C1261.82591,139.865079 1262.00339,139.687302 1262.00339,139.468254 C1262.00339,139.249206 1261.82591,139.071429 1261.60723,139.071429 C1261.38855,139.071429 1261.21107,139.249206 1261.21107,139.468254 C1261.21107,139.687302 1261.38855,139.865079 1261.60723,139.865079 L1261.60723,139.865079 Z M1261.60723,138.674603 C1262.04459,138.674603 1262.39956,139.029365 1262.39956,139.468254 C1262.39956,139.906349 1262.04459,140.261905 1261.60723,140.261905 C1261.16987,140.261905 1260.81491,139.906349 1260.81491,139.468254 C1260.81491,139.029365 1261.16987,138.674603 1261.60723,138.674603 L1261.60723,138.674603 Z M1256.06096,141.055556 L1263.98421,141.055556 L1263.98421,137.880952 L1256.06096,137.880952 L1256.06096,141.055556 Z M1282.68307,132.920635 L1277.43392,132.920635 C1277.44422,132.985714 1277.45373,133.050794 1277.45373,133.119048 L1277.45373,133.714286 L1282.68307,133.714286 C1282.85817,133.714286 1283,133.572222 1283,133.396825 L1283,133.238095 C1283,133.062698 1282.85817,132.920635 1282.68307,132.920635 L1282.68307,132.920635 Z M1242.54627,144.031746 L1243.3386,144.031746 L1243.3386,145.619048 L1243.14052,145.619048 L1243.14052,148 L1244.329,148 L1244.329,145.619048 L1244.13092,145.619048 L1244.13092,144.031746 L1244.92325,144.031746 L1244.92325,136.888889 L1252.8465,136.888889 L1252.8465,135.301587 L1242.54627,135.301587 L1242.54627,144.031746 Z M1277.25565,132.920635 C1277.25565,132.48254 1276.90068,132.126984 1276.46332,132.126984 L1275.27483,132.126984 C1274.83747,132.126984 1274.48251,132.48254 1274.48251,132.920635 L1274.48251,135.103175 L1277.25565,135.103175 L1277.25565,132.920635 Z M1265.17269,124.190476 C1266.26689,124.190476 1267.1535,123.92381 1267.1535,123.595238 C1267.1535,123.266667 1266.26689,123 1265.17269,123 C1264.07849,123 1263.19188,123.266667 1263.19188,123.595238 C1263.19188,123.92381 1264.07849,124.190476 1265.17269,124.190476 L1265.17269,124.190476 Z M1242.54627,133.119048 C1242.54627,133.050794 1242.55499,132.985714 1242.56608,132.920635 L1237.31693,132.920635 C1237.14183,132.920635 1237,133.062698 1237,133.238095 L1237,133.396825 C1237,133.572222 1237.14183,133.714286 1237.31693,133.714286 L1242.54627,133.714286 L1242.54627,133.119048 Z M1245.71557,133.714286 L1250.94492,133.714286 C1251.12002,133.714286 1251.26185,133.572222 1251.26185,133.396825 L1251.26185,133.238095 C1251.26185,133.062698 1251.12002,132.920635 1250.94492,132.920635 L1245.69576,132.920635 C1245.70686,132.985714 1245.71557,133.050794 1245.71557,133.119048 L1245.71557,133.714286 Z M1245.51749,132.920635 C1245.51749,132.481746 1245.16253,132.126984 1244.72517,132.126984 L1243.53668,132.126984 C1243.09932,132.126984 1242.74435,132.481746 1242.74435,132.920635 L1242.74435,135.103175 L1245.51749,135.103175 L1245.51749,132.920635 Z M1269.05508,133.714286 L1274.28443,133.714286 L1274.28443,133.119048 C1274.28443,133.050794 1274.29394,132.985714 1274.30503,132.920635 L1269.05508,132.920635 C1268.87998,132.920635 1268.73815,133.062698 1268.73815,133.238095 L1268.73815,133.396825 C1268.73815,133.572222 1268.87998,133.714286 1269.05508,133.714286 L1269.05508,133.714286 Z" id="Page-1" fill="#717171"></path>
            <g id="Slices" transform="translate(390.000000, 114.000000)"></g>
        </g>
    </g>
</svg>