<?xml version="1.0" encoding="UTF-8"?>
<svg width="60px" height="48px" viewBox="0 0 60 48" version="1.1" xmlns="http://www.w3.org/2000/svg" xmlns:xlink="http://www.w3.org/1999/xlink">
    <!-- Generator: Sketch 45.2 (43514) - http://www.bohemiancoding.com/sketch -->
    <title>ic_service</title>
    <desc>Created with Sketch.</desc>
    <defs></defs>
    <g id="Page-1" stroke="none" stroke-width="1" fill="none" fill-rule="evenodd">
        <g id="ic_front_商城首页80%缩小版" transform="translate(-1590.000000, -114.000000)">
            <g id="Page-1" transform="translate(1608.000000, 126.000000)" fill="#707473">
                <path d="M-0.00016,3.2471142 L-0.00016,10.8314501 C-0.00016,18.3264769 5.08794289,24.1194285 12.0006974,26.0001219 C18.9117371,24.0899479 23.99984,18.2961291 23.99984,10.8314501 L23.99984,3.2471142 C16.5880501,-1.0822089 7.41162992,-1.0822089 -0.00016,3.2471142 M16.91584,10.3861063 L11.82464,15.5568563 C11.51184,15.8737313 11.00544,15.8737313 10.69344,15.5568563 L7.86464,12.6838563 C7.55264,12.3669813 7.55264,11.8526688 7.86464,11.5349813 C8.17664,11.2172938 8.68384,11.2172938 8.99664,11.5349813 L11.25904,13.8335438 L15.78384,9.23723125 C16.09664,8.91954375 16.60304,8.91954375 16.91584,9.23723125 C17.22784,9.55410625 17.22784,10.0684188 16.91584,10.3861063" id="Fill-1"></path>
            </g>
            <g id="Slices" transform="translate(390.000000, 114.000000)"></g>
        </g>
    </g>
</svg>